<svg width="31" height="37" viewBox="0 0 31 37" fill="none" xmlns="http://www.w3.org/2000/svg">
<path d="M25.5547 19.333C25.5119 14.7402 29.4448 12.5058 29.6246 12.4018C27.3973 9.2625 23.945 8.83357 22.7318 8.79937C19.8323 8.5044 17.0198 10.4766 15.5428 10.4766C14.0363 10.4766 11.7618 8.82787 9.31039 8.87632C6.15587 8.92335 3.20478 10.6889 1.58624 13.4306C-1.75401 19.0209 0.737178 27.236 3.93739 31.7547C5.53824 33.9677 7.40884 36.4387 9.85728 36.3517C12.2526 36.2563 13.1474 34.8754 16.0381 34.8754C18.9022 34.8754 19.7424 36.3517 22.2395 36.2962C24.8103 36.2563 26.4288 34.0732 27.9736 31.8402C29.8236 29.3037 30.5665 26.8057 30.596 26.6774C30.5356 26.6575 25.6033 24.8377 25.5547 19.333Z" fill="white"/>
<path d="M20.8377 5.82682C22.126 4.2693 23.0075 2.15032 22.7628 0C20.8981 0.0798 18.5661 1.24688 17.2232 2.7702C16.0351 4.11255 14.9738 6.31275 15.248 8.38185C17.3426 8.5329 19.4933 7.36012 20.8377 5.82682Z" fill="white"/>
</svg>
