<svg width="24" height="28" viewBox="0 0 24 28" fill="none" xmlns="http://www.w3.org/2000/svg">
<path d="M19.5707 14.8903C19.538 11.353 22.5499 9.63202 22.6876 9.5519C20.9818 7.13402 18.338 6.80366 17.4089 6.77732C15.1883 6.55013 13.0344 8.06913 11.9032 8.06913C10.7495 8.06913 9.0076 6.79927 7.13024 6.83659C4.71439 6.87281 2.45434 8.23266 1.2148 10.3443C-1.34328 14.65 0.564558 20.9773 3.0154 24.4576C4.24139 26.1621 5.67396 28.0652 7.54906 27.9983C9.38352 27.9247 10.0688 26.8612 12.2825 26.8612C14.476 26.8612 15.1195 27.9983 17.0318 27.9555C19.0006 27.9247 20.2402 26.2433 21.4232 24.5235C22.84 22.5698 23.409 20.6459 23.4316 20.5471C23.3853 20.5317 19.608 19.1301 19.5707 14.8903Z" fill="white"/>
<path d="M15.9582 4.48785C16.9449 3.28823 17.62 1.65619 17.4326 0C16.0045 0.0614623 14.2186 0.960349 13.1902 2.13362C12.2803 3.16751 11.4675 4.86211 11.6774 6.45574C13.2816 6.57208 14.9287 5.6688 15.9582 4.48785Z" fill="white"/>
</svg>
