<svg width="28" height="28" viewBox="0 0 28 28" fill="none" xmlns="http://www.w3.org/2000/svg">
<path d="M13.9987 2.38086C7.58203 2.38086 2.33203 7.61919 2.33203 14.0709C2.33203 19.9042 6.60203 24.7459 12.1787 25.6209V17.4542H9.21536V14.0709H12.1787V11.4925C12.1787 8.56419 13.917 6.95419 16.5887 6.95419C17.8604 6.95419 19.1904 7.17586 19.1904 7.17586V10.0575H17.7204C16.2737 10.0575 15.8187 10.9559 15.8187 11.8775V14.0709H19.062L18.537 17.4542H15.8187V25.6209C18.5679 25.1867 21.0713 23.784 22.8769 21.6659C24.6826 19.5479 25.6716 16.8541 25.6654 14.0709C25.6654 7.61919 20.4154 2.38086 13.9987 2.38086Z" fill="white"/>
</svg>
