<svg width="24" height="24" viewBox="0 0 24 24" fill="none" xmlns="http://www.w3.org/2000/svg">
<path fill-rule="evenodd" clip-rule="evenodd" d="M17.75 12C17.75 8.82436 15.1756 6.25 12 6.25C8.8244 6.25 6.25 8.82436 6.25 12V14C6.25 14.4142 6.5858 14.75 7 14.75H8.442L9.7816 19.2155C9.8768 19.5327 10.1688 19.75 10.5 19.75H13.5C13.8312 19.75 14.1232 19.5327 14.2184 19.2155L15.558 14.75H17C17.4142 14.75 17.75 14.4142 17.75 14V12Z" fill="#171717"/>
<path fill-rule="evenodd" clip-rule="evenodd" d="M15 4.5C15 2.84315 13.6569 1.5 12 1.5C10.3431 1.5 9 2.84315 9 4.5C9 6.15685 10.3431 7.5 12 7.5C13.6569 7.5 15 6.15685 15 4.5Z" fill="#171717"/>
<path d="M18.1278 16.0717C17.615 16.2768 17.3655 16.8587 17.5706 17.3715L19.0215 21.0003H5.037L6.4121 17.9064C6.6364 17.4017 6.4091 16.8108 5.9044 16.5865C5.3997 16.3622 4.8088 16.5894 4.5845 17.0941L3.2094 20.188C2.6216 21.5106 3.5897 23.0003 5.037 23.0003H19.0215C20.4363 23.0003 21.4038 21.5714 20.8785 20.2577L19.4276 16.629C19.2226 16.1162 18.6407 15.8667 18.1278 16.0717Z" fill="#171717"/>
</svg>
