<svg width="80" height="41" viewBox="0 0 80 41" fill="none" xmlns="http://www.w3.org/2000/svg">
<path fill-rule="evenodd" clip-rule="evenodd" d="M67.8933 6.42756C68.4143 5.99283 68.9661 5.65125 69.5791 5.40283C70.3147 5.12336 71.081 4.99915 71.8473 4.99915C71.8779 4.99915 71.8779 4.99915 71.8779 4.99915C72.9201 4.99915 73.9009 5.24757 74.7898 5.77546C75.3415 6.08599 75.8013 6.48967 76.1998 6.95546C76.5982 7.39019 76.9047 7.85598 77.15 8.41493C77.3952 8.94282 77.5484 9.50176 77.5791 10.0918C77.5791 10.1228 77.5791 10.1228 77.5791 10.1539C77.5791 10.7128 77.4871 11.2407 77.2419 11.7065C77.4258 12.0791 77.5178 12.5139 77.5178 12.9486C77.5178 13.197 77.4871 13.4454 77.4258 13.6939C77.3032 14.0665 77.15 14.4081 76.9047 14.7186C76.6595 15.0291 76.3837 15.2775 76.0465 15.4638C75.7093 15.6812 75.3415 15.8365 74.9737 15.9607C74.9431 15.9917 74.9431 15.9917 74.9124 15.9917C74.422 16.147 73.9316 16.2402 73.4105 16.3023C73.0427 16.3644 72.6442 16.3954 72.2764 16.3954C71.4182 16.3954 70.5906 16.2712 69.8243 15.9917C69.058 15.7123 68.353 15.3086 67.7706 14.7807C67.7706 14.7496 67.74 14.7496 67.74 14.7496C67.5561 14.936 67.3415 15.1223 67.127 15.3086C66.1461 16.116 64.9507 16.4265 63.7247 16.4265C63.4488 16.4265 63.2036 16.3954 62.9584 16.3644C62.0082 16.3023 61.0274 16.116 60.1998 15.6191C60.1998 15.5881 60.1998 15.5881 60.1998 15.5881C60.1691 15.557 60.1385 15.557 60.1078 15.526C59.4948 16.0849 58.7592 16.3954 57.9316 16.3954C57.0427 16.3954 56.2764 16.0538 55.6634 15.4638C55.3875 15.1533 55.1729 14.8428 54.989 14.5012C54.4067 15.6191 53.3952 16.3023 52.0772 16.3023C52.0772 16.3023 52.0465 16.3023 52.0159 16.3023C51.4028 16.2712 50.7898 16.0849 50.2994 15.7123C50.1155 15.557 49.9622 15.4328 49.809 15.2775C49.5331 15.5881 49.2266 15.8365 48.8281 16.0228C48.4603 16.2091 48.0312 16.3023 47.6021 16.3023C47.5714 16.3023 47.5714 16.3023 47.5714 16.3023C46.9277 16.3023 46.3147 16.147 45.763 15.7744C45.2113 15.4017 44.8128 14.8739 44.5369 14.2839L43.8626 12.9175L41.7783 17.7928C41.2266 19.0659 40.2151 19.9665 38.8051 19.9665C38.468 19.9665 38.1615 19.8733 37.8243 19.7801C37.2113 19.5628 36.6595 19.1902 36.2611 18.6623C35.832 18.1344 35.648 17.4823 35.648 16.8302C35.648 16.4886 35.7093 16.147 35.8013 15.8365C35.2802 16.2091 34.6366 16.3954 33.9929 16.3954C33.6864 16.3954 33.4412 16.3023 33.1959 16.1781L32.8281 15.9607C32.2457 16.2712 31.6021 16.3954 30.8971 16.3954C30.5293 16.3954 30.1615 16.3644 29.7936 16.2712C29.0887 16.147 28.4756 15.8675 27.8933 15.4638C27.3109 15.0602 26.8205 14.5012 26.3913 13.9112C26.3913 13.8802 26.3913 13.8491 26.3607 13.8491C26.1461 13.4454 25.9622 13.0418 25.809 12.607C25.2266 12.8865 24.5523 13.0728 23.8779 13.166C23.694 13.166 23.5101 13.197 23.3569 13.197C23.2956 14.0665 22.989 14.8428 22.376 15.4328C21.7323 16.0538 20.9661 16.3954 20.1078 16.3954C19.1883 16.3954 18.3607 16.0228 17.7477 15.3707C17.7477 15.3396 17.717 15.3396 17.717 15.3396C17.1346 14.6875 16.8281 13.8802 16.8281 13.0107V5.89967C16.8281 4.99915 17.104 4.12968 17.717 3.44652C18.33 2.79442 19.1576 2.45284 20.0772 2.45284H23.173C24.1538 2.45284 25.1346 2.63916 25.9929 3.136C26.8511 3.60178 27.5254 4.25389 28.0159 5.12336C28.1078 5.27862 28.1998 5.46494 28.2917 5.65125C28.7821 5.37178 29.3032 5.15441 29.8856 5.06125C30.1921 4.9681 30.5599 4.93704 30.8971 4.93704C31.5714 4.93704 32.2151 5.06125 32.7975 5.37178L33.1959 5.18546C33.5638 4.93704 33.9622 4.84389 34.3913 4.84389C35.0044 4.84389 35.5867 5.06125 36.0465 5.49599C36.1691 5.43388 36.2917 5.34073 36.445 5.27862C36.8741 5.09231 37.3339 4.9681 37.8243 4.9681C38.2841 4.9681 38.7132 5.06125 39.1116 5.27862C39.4795 5.46494 39.8166 5.71336 40.0925 6.02388C40.3377 5.74441 40.6136 5.49599 40.9507 5.30967C41.3798 5.09231 41.8703 4.9681 42.3913 4.9681C42.8818 4.9681 43.3415 5.09231 43.7707 5.27862C44.1691 5.09231 44.5676 4.99915 44.9967 4.9681C45.058 4.9681 45.0887 4.9681 45.1193 4.9681C45.5484 4.9681 45.9775 5.0302 46.376 5.18546C46.7745 5.37178 47.1423 5.58915 47.4795 5.89967C47.4795 5.93072 47.5101 5.93072 47.5101 5.96178C48.0618 5.30967 48.8281 4.90599 49.7783 4.90599C50.1155 4.90599 50.4833 4.99915 50.8205 5.09231C51.3415 5.24757 51.8013 5.55809 52.1385 5.96178C52.1691 5.93072 52.1691 5.93072 52.1691 5.93072C52.4756 5.6202 52.8434 5.37178 53.2726 5.18546C53.671 5.0302 54.1002 4.9681 54.5293 4.9681C54.5599 4.9681 54.5906 4.9681 54.6212 4.9681C54.6519 4.9681 54.6519 4.9681 54.6519 4.9681C54.6519 4.81283 54.6212 4.68862 54.6212 4.53336C54.6212 3.63284 54.9584 2.82547 55.5714 2.17337C55.6021 2.17337 55.6021 2.14232 55.6327 2.14232C55.9392 1.83179 56.2764 1.61442 56.6749 1.42811C57.0733 1.27285 57.5025 1.17969 57.9316 1.17969C58.8205 1.17969 59.648 1.55232 60.2611 2.20442C60.8741 2.85652 61.2113 3.66389 61.2113 4.56441C61.2113 4.93704 61.15 5.27862 61.058 5.58915C61.15 5.55809 61.2726 5.49599 61.3645 5.43388C62.1615 5.09231 63.0197 4.9681 63.8779 4.9681C64.491 4.9681 65.1346 5.0302 65.7477 5.18546C66.5446 5.40283 67.3415 5.77546 67.8933 6.42756ZM70.6212 17.4512C70.7438 17.327 70.8971 17.2338 71.0503 17.1407C71.5408 16.8612 72.0925 16.7059 72.6749 16.737C73.2572 16.737 73.7783 16.8923 74.2687 17.2028C74.7592 17.4823 75.127 17.8859 75.4028 18.3828C75.6787 18.8486 75.832 19.4075 75.832 19.9665V28.3506C75.832 29.2201 75.5254 30.0275 74.9124 30.6485C74.9124 30.6796 74.8818 30.7106 74.8511 30.7417C74.2381 31.3006 73.4718 31.6422 72.6136 31.6422C71.8779 31.6422 71.2036 31.3938 70.6212 30.928C70.0388 31.3627 69.3645 31.6422 68.5982 31.6422C67.8626 31.6422 67.1576 31.3938 66.6059 30.928C66.0235 31.3938 65.3492 31.6112 64.5829 31.6112C64.307 31.6112 64.0618 31.5491 63.786 31.3938L63.4182 31.1764C62.8664 31.487 62.1921 31.6422 61.5178 31.6422C61.15 31.6422 60.7515 31.5801 60.3837 31.518C59.7093 31.3938 59.0963 31.0833 58.5139 30.7106C58.3913 30.6175 58.2994 30.5243 58.1768 30.4312C58.0848 30.5864 57.9622 30.7106 57.809 30.8038C57.1959 31.3317 56.491 31.6112 55.694 31.6112C55.3262 31.6112 54.989 31.5491 54.6825 31.4559C54.6519 31.4559 54.6212 31.4559 54.5906 31.4248C54.0388 31.2385 53.5791 30.897 53.1806 30.4622C53.15 30.4933 53.1193 30.5243 53.0887 30.5864C52.7515 30.9901 52.3224 31.3006 51.832 31.487C51.4641 31.6112 51.0963 31.7043 50.7285 31.7043C50.0235 31.7043 49.3492 31.4248 48.8281 30.928C48.6442 30.7727 48.5216 30.6175 48.399 30.4312C48.0005 30.897 47.5408 31.2385 46.989 31.4248C46.9584 31.4559 46.9277 31.4559 46.8971 31.4559C46.5599 31.5491 46.2228 31.6112 45.8856 31.6112C45.0887 31.6112 44.3837 31.3317 43.7707 30.8348C43.1576 30.2759 42.7592 29.5617 42.6672 28.7543C42.6672 28.6922 42.6672 28.6301 42.6672 28.568C42.6672 28.3506 42.6672 28.1022 42.6979 27.8849C42.6979 27.8228 42.6979 27.7917 42.6979 27.7296L43.8933 20.7738C43.9852 20.0907 44.2304 19.5007 44.6289 18.9728C45.058 18.4449 45.5791 18.0412 46.2228 17.7928C46.6825 17.6375 47.1423 17.5133 47.6634 17.5133C48.491 17.5133 49.2572 17.7928 49.9009 18.2896C50.2687 18.5691 50.5446 18.8796 50.7898 19.2212C51.035 18.8796 51.3109 18.538 51.6787 18.2896C52.3224 17.7928 53.0887 17.5133 53.9162 17.5133C54.4067 17.5133 54.8971 17.6375 55.3569 17.7928C56.0005 18.0412 56.5216 18.4138 56.9507 18.9728C57.3492 19.5007 57.5944 20.1217 57.6864 20.7428L57.8396 21.7054C57.9929 21.5812 58.1461 21.4259 58.2994 21.3017C58.9431 20.8049 59.6787 20.4323 60.4756 20.277C60.8128 20.2149 61.15 20.1528 61.5178 20.1528C62.1921 20.1528 62.8358 20.308 63.4182 20.6186L63.8166 20.4012C64.1538 20.1838 64.5829 20.0596 65.012 20.0596C65.1346 20.0596 65.2879 20.0907 65.4105 20.0907V19.9354C65.4105 19.3765 65.5638 18.8175 65.8396 18.3207C66.1461 17.8238 66.5446 17.4512 67.0044 17.1407C67.5254 16.8612 68.0772 16.7059 68.6595 16.737C69.2113 16.737 69.763 16.8923 70.2534 17.2028C70.376 17.2649 70.4986 17.3581 70.6212 17.4512Z" stroke="#157571" stroke-width="2.2" stroke-linejoin="round"/>
<path fill-rule="evenodd" clip-rule="evenodd" d="M67.8933 6.42756C68.4143 5.99283 68.9661 5.65125 69.5791 5.40283C70.3147 5.12336 71.081 4.99915 71.8473 4.99915C71.8779 4.99915 71.8779 4.99915 71.8779 4.99915C72.9201 4.99915 73.9009 5.24757 74.7898 5.77546C75.3415 6.08599 75.8013 6.48967 76.1998 6.95546C76.5982 7.39019 76.9047 7.85598 77.15 8.41493C77.3952 8.94282 77.5484 9.50176 77.5791 10.0918C77.5791 10.1228 77.5791 10.1228 77.5791 10.1539C77.5791 10.7128 77.4871 11.2407 77.2419 11.7065C77.4258 12.0791 77.5178 12.5139 77.5178 12.9486C77.5178 13.197 77.4871 13.4454 77.4258 13.6939C77.3032 14.0665 77.15 14.4081 76.9047 14.7186C76.6595 15.0291 76.3837 15.2775 76.0465 15.4638C75.7093 15.6812 75.3415 15.8365 74.9737 15.9607C74.9431 15.9917 74.9431 15.9917 74.9124 15.9917C74.422 16.147 73.9316 16.2402 73.4105 16.3023C73.0427 16.3644 72.6442 16.3954 72.2764 16.3954C71.4182 16.3954 70.5906 16.2712 69.8243 15.9917C69.058 15.7123 68.353 15.3086 67.7706 14.7807C67.7706 14.7496 67.74 14.7496 67.74 14.7496C67.5561 14.936 67.3415 15.1223 67.127 15.3086C66.1461 16.116 64.9507 16.4265 63.7247 16.4265C63.4488 16.4265 63.2036 16.3954 62.9584 16.3644C62.0082 16.3023 61.0274 16.116 60.1998 15.6191C60.1998 15.5881 60.1998 15.5881 60.1998 15.5881C60.1691 15.557 60.1385 15.557 60.1078 15.526C59.4948 16.0849 58.7592 16.3954 57.9316 16.3954C57.0427 16.3954 56.2764 16.0538 55.6634 15.4638C55.3875 15.1533 55.173 14.8428 54.989 14.5012C54.4067 15.6191 53.3952 16.3023 52.0772 16.3023C52.0772 16.3023 52.0465 16.3023 52.0159 16.3023C51.4028 16.2712 50.7898 16.0849 50.2994 15.7123C50.1155 15.557 49.9622 15.4328 49.809 15.2775C49.5331 15.5881 49.2266 15.8365 48.8281 16.0228C48.4603 16.2091 48.0312 16.3023 47.6021 16.3023C47.5714 16.3023 47.5714 16.3023 47.5714 16.3023C46.9277 16.3023 46.3147 16.147 45.763 15.7744C45.2113 15.4017 44.8128 14.8739 44.5369 14.2839L43.8626 12.9175L41.7783 17.7928C41.2266 19.0659 40.2151 19.9665 38.8051 19.9665C38.468 19.9665 38.1615 19.8733 37.8243 19.7801C37.2113 19.5628 36.6595 19.1902 36.2611 18.6623C35.832 18.1344 35.648 17.4823 35.648 16.8302C35.648 16.4886 35.7093 16.147 35.8013 15.8365C35.2802 16.2091 34.6366 16.3954 33.9929 16.3954C33.6864 16.3954 33.4412 16.3023 33.1959 16.1781L32.8281 15.9607C32.2457 16.2712 31.6021 16.3954 30.8971 16.3954C30.5293 16.3954 30.1615 16.3644 29.7936 16.2712C29.0887 16.147 28.4756 15.8675 27.8933 15.4638C27.3109 15.0602 26.8205 14.5012 26.3913 13.9112C26.3913 13.8802 26.3913 13.8491 26.3607 13.8491C26.1461 13.4454 25.9622 13.0418 25.809 12.607C25.2266 12.8865 24.5523 13.0728 23.8779 13.166C23.694 13.166 23.5101 13.197 23.3569 13.197C23.2956 14.0665 22.989 14.8428 22.376 15.4328C21.7323 16.0538 20.9661 16.3954 20.1078 16.3954C19.1883 16.3954 18.3607 16.0228 17.7477 15.3707C17.7477 15.3396 17.717 15.3396 17.717 15.3396C17.1346 14.6875 16.8281 13.8802 16.8281 13.0107V5.89967C16.8281 4.99915 17.104 4.12968 17.717 3.44652C18.33 2.79442 19.1576 2.45284 20.0772 2.45284H23.173C24.1538 2.45284 25.1346 2.63916 25.9929 3.136C26.8511 3.60178 27.5254 4.25389 28.0159 5.12336C28.1078 5.27862 28.1998 5.46494 28.2917 5.65125C28.7821 5.37178 29.3032 5.15441 29.8856 5.06125C30.1921 4.9681 30.5599 4.93704 30.8971 4.93704C31.5714 4.93704 32.2151 5.06125 32.7975 5.37178L33.1959 5.18546C33.5638 4.93704 33.9622 4.84389 34.3913 4.84389C35.0044 4.84389 35.5867 5.06125 36.0465 5.49599C36.1691 5.43388 36.2917 5.34073 36.445 5.27862C36.8741 5.09231 37.3339 4.9681 37.8243 4.9681C38.2841 4.9681 38.7132 5.06125 39.1116 5.27862C39.4795 5.46494 39.8166 5.71336 40.0925 6.02388C40.3377 5.74441 40.6136 5.49599 40.9507 5.30967C41.3798 5.09231 41.8703 4.9681 42.3913 4.9681C42.8818 4.9681 43.3415 5.09231 43.7707 5.27862C44.1691 5.09231 44.5676 4.99915 44.9967 4.9681C45.058 4.9681 45.0887 4.9681 45.1193 4.9681C45.5484 4.9681 45.9775 5.0302 46.376 5.18546C46.7745 5.37178 47.1423 5.58915 47.4795 5.89967C47.4795 5.93072 47.5101 5.93072 47.5101 5.96178C48.0618 5.30967 48.8281 4.90599 49.7783 4.90599C50.1155 4.90599 50.4833 4.99915 50.8205 5.09231C51.3415 5.24757 51.8013 5.55809 52.1385 5.96178C52.1691 5.93072 52.1691 5.93072 52.1691 5.93072C52.4756 5.6202 52.8434 5.37178 53.2726 5.18546C53.671 5.0302 54.1002 4.9681 54.5293 4.9681C54.5599 4.9681 54.5906 4.9681 54.6212 4.9681C54.6519 4.9681 54.6519 4.9681 54.6519 4.9681C54.6519 4.81283 54.6212 4.68862 54.6212 4.53336C54.6212 3.63284 54.9584 2.82547 55.5714 2.17337C55.6021 2.17337 55.6021 2.14232 55.6327 2.14232C55.9392 1.83179 56.2764 1.61442 56.6749 1.42811C57.0733 1.27285 57.5025 1.17969 57.9316 1.17969C58.8205 1.17969 59.648 1.55232 60.2611 2.20442C60.8741 2.85652 61.2113 3.66389 61.2113 4.56441C61.2113 4.93704 61.15 5.27862 61.058 5.58915C61.15 5.55809 61.2726 5.49599 61.3645 5.43388C62.1615 5.09231 63.0197 4.9681 63.8779 4.9681C64.491 4.9681 65.1346 5.0302 65.7477 5.18546C66.5446 5.40283 67.3415 5.77546 67.8933 6.42756ZM70.6212 17.4512C70.7438 17.327 70.8971 17.2338 71.0503 17.1407C71.5408 16.8612 72.0925 16.7059 72.6749 16.737C73.2572 16.737 73.7783 16.8923 74.2687 17.2028C74.7592 17.4823 75.127 17.8859 75.4028 18.3828C75.6787 18.8486 75.832 19.4075 75.832 19.9665V28.3506C75.832 29.2201 75.5254 30.0275 74.9124 30.6485C74.9124 30.6796 74.8818 30.7106 74.8511 30.7417C74.2381 31.3006 73.4718 31.6422 72.6136 31.6422C71.8779 31.6422 71.2036 31.3938 70.6212 30.928C70.0388 31.3627 69.3645 31.6422 68.5982 31.6422C67.8626 31.6422 67.1576 31.3938 66.6059 30.928C66.0235 31.3938 65.3492 31.6112 64.5829 31.6112C64.307 31.6112 64.0618 31.5491 63.786 31.3938L63.4182 31.1764C62.8664 31.487 62.1921 31.6422 61.5178 31.6422C61.15 31.6422 60.7515 31.5801 60.3837 31.518C59.7093 31.3938 59.0963 31.0833 58.5139 30.7106C58.3913 30.6175 58.2994 30.5243 58.1768 30.4312C58.0848 30.5864 57.9622 30.7106 57.809 30.8038C57.1959 31.3317 56.491 31.6112 55.694 31.6112C55.3262 31.6112 54.989 31.5491 54.6825 31.4559C54.6519 31.4559 54.6212 31.4559 54.5906 31.4248C54.0388 31.2385 53.5791 30.897 53.1806 30.4622C53.15 30.4933 53.1193 30.5243 53.0887 30.5864C52.7515 30.9901 52.3224 31.3006 51.832 31.487C51.4641 31.6112 51.0963 31.7043 50.7285 31.7043C50.0235 31.7043 49.3492 31.4248 48.8281 30.928C48.6442 30.7727 48.5216 30.6175 48.399 30.4312C48.0005 30.897 47.5408 31.2385 46.989 31.4248C46.9584 31.4559 46.9277 31.4559 46.8971 31.4559C46.5599 31.5491 46.2228 31.6112 45.8856 31.6112C45.0887 31.6112 44.3837 31.3317 43.7707 30.8348C43.1576 30.2759 42.7592 29.5617 42.6672 28.7543C42.6672 28.6922 42.6672 28.6301 42.6672 28.568C42.6672 28.3506 42.6672 28.1022 42.6979 27.8849C42.6979 27.8228 42.6979 27.7917 42.6979 27.7296L43.8933 20.7738C43.9852 20.0907 44.2304 19.5007 44.6289 18.9728C45.058 18.4449 45.5791 18.0412 46.2228 17.7928C46.6825 17.6375 47.1423 17.5133 47.6634 17.5133C48.491 17.5133 49.2572 17.7928 49.9009 18.2896C50.2687 18.5691 50.5446 18.8796 50.7898 19.2212C51.035 18.8796 51.3109 18.538 51.6787 18.2896C52.3224 17.7928 53.0887 17.5133 53.9162 17.5133C54.4067 17.5133 54.8971 17.6375 55.3569 17.7928C56.0005 18.0412 56.5216 18.4138 56.9507 18.9728C57.3492 19.5007 57.5944 20.1217 57.6864 20.7428L57.8396 21.7054C57.9929 21.5812 58.1461 21.4259 58.2994 21.3017C58.9431 20.8049 59.6787 20.4323 60.4756 20.277C60.8128 20.2149 61.15 20.1528 61.5178 20.1528C62.1921 20.1528 62.8358 20.308 63.4182 20.6186L63.8166 20.4012C64.1538 20.1838 64.5829 20.0596 65.012 20.0596C65.1346 20.0596 65.2879 20.0907 65.4105 20.0907V19.9354C65.4105 19.3765 65.5638 18.8175 65.8396 18.3207C66.1461 17.8238 66.5446 17.4512 67.0044 17.1407C67.5254 16.8612 68.0772 16.7059 68.6595 16.737C69.2113 16.737 69.763 16.8923 70.2534 17.2028C70.376 17.2649 70.4986 17.3581 70.6212 17.4512Z" fill="#157571"/>
<path fill-rule="evenodd" clip-rule="evenodd" d="M67.6786 7.85526C67.8626 7.60684 68.0465 7.35842 68.2917 7.1721C68.7514 6.70631 69.3032 6.39579 69.8855 6.14737C70.5292 5.89895 71.1729 5.80579 71.8472 5.80579H71.8779C72.7668 5.80579 73.625 6.02316 74.3913 6.45789C74.8511 6.73736 75.2495 7.07894 75.6173 7.48263C75.9545 7.85526 76.2304 8.28999 76.4143 8.75578C76.6288 9.19051 76.7514 9.6563 76.7821 10.1221V10.1531C76.7821 10.7121 76.6595 11.271 76.261 11.7058C76.5675 12.0473 76.7208 12.4821 76.7208 12.9479C76.7208 13.1342 76.6901 13.2894 76.6595 13.4758C76.5675 13.7242 76.4449 14.0037 76.261 14.221C76.1078 14.4384 75.8626 14.6247 75.6173 14.78C75.3415 14.9663 75.035 15.0905 74.7285 15.2147C74.6978 15.2147 74.6978 15.2147 74.6672 15.2147C74.238 15.3389 73.7783 15.4321 73.3185 15.4942C72.9507 15.5563 72.6135 15.5563 72.2763 15.5563C71.5101 15.5563 70.7744 15.4631 70.0695 15.2147C69.4258 14.9973 68.8127 14.6558 68.3223 14.19C68.0465 13.9416 67.8319 13.6931 67.648 13.4137C67.4028 13.9105 67.0656 14.3142 66.6365 14.6868C65.8089 15.37 64.7668 15.5873 63.7246 15.5873C63.4794 15.5873 63.2342 15.5873 63.0196 15.5563C62.1921 15.4942 61.3338 15.3389 60.6288 14.9042H60.5982C60.3836 14.7489 60.1691 14.5937 59.9852 14.4073C59.8932 14.5626 59.7706 14.7179 59.6173 14.8731C59.1576 15.3389 58.5752 15.5873 57.9315 15.5873C57.2572 15.5873 56.6748 15.3389 56.215 14.8731C55.7553 14.4073 55.5101 13.8173 55.5101 13.1342V11.5816L54.376 13.9416C53.9162 14.8731 53.1499 15.4942 52.0771 15.4942C52.0771 15.4942 52.0771 15.4942 52.0465 15.4942C51.5867 15.4631 51.1576 15.3079 50.7591 15.0284C50.3913 14.7489 50.0848 14.3763 49.9009 13.9105L49.8089 13.6621L49.717 13.9105C49.625 14.19 49.4411 14.4694 49.2265 14.7179C49.0426 14.9352 48.7668 15.1526 48.4909 15.2768C48.215 15.4321 47.9085 15.4942 47.5714 15.4942C47.0809 15.4942 46.6212 15.37 46.1921 15.0905C45.7936 14.811 45.4871 14.4073 45.2419 13.9416L43.8319 10.9605L41.0426 17.4815C40.6135 18.4442 39.9085 19.1273 38.8051 19.1273C38.5599 19.1273 38.3147 19.0652 38.0694 19.0031C37.6097 18.8478 37.1806 18.5684 36.874 18.1647C36.5982 17.7921 36.4449 17.3263 36.4449 16.8294C36.4449 16.4568 36.5369 16.1152 36.6901 15.8047L37.6097 13.8173L36.353 10.9295V13.1342C36.353 13.7863 36.1384 14.4073 35.6786 14.8731C35.2189 15.3389 34.6365 15.5563 33.9928 15.5563C33.8396 15.5563 33.717 15.5252 33.5943 15.4631L32.7974 15.0284C32.2457 15.401 31.602 15.5873 30.897 15.5873C30.5905 15.5873 30.2534 15.5563 29.9468 15.4942C29.3645 15.37 28.8434 15.1215 28.353 14.811C27.8319 14.4384 27.4334 13.9726 27.0656 13.4447C27.0656 13.4447 27.0656 13.4447 27.0656 13.4137C26.8204 13.01 26.6365 12.5442 26.5139 12.1095C26.4219 11.83 26.3913 11.5505 26.3606 11.3021C25.625 11.8921 24.7361 12.2337 23.7553 12.3579C23.5407 12.3889 23.2955 12.3889 23.0503 12.3889H22.5599V13.041C22.5599 13.7552 22.3147 14.3763 21.7936 14.8731C21.3338 15.3389 20.7514 15.5563 20.1078 15.5563C19.4028 15.5563 18.7898 15.3079 18.33 14.811C18.33 14.811 18.33 14.78 18.2993 14.78C17.8702 14.2831 17.625 13.6931 17.625 13.01V5.89895C17.625 5.21579 17.8089 4.53264 18.2993 4.00474C18.7898 3.5079 19.4028 3.25948 20.0771 3.25948H23.1729C24.0311 3.25948 24.8587 3.41474 25.625 3.84948C26.33 4.25316 26.9124 4.81211 27.3415 5.52632C27.5867 5.9921 27.7706 6.48894 27.8625 6.98579C27.9545 6.89263 28.0771 6.79947 28.1997 6.70631C28.7208 6.27158 29.3338 5.9921 30.0388 5.83684C30.3147 5.77474 30.6212 5.74368 30.897 5.74368C31.602 5.74368 32.2457 5.93 32.7974 6.30263L33.5943 5.86789C33.8396 5.71263 34.1154 5.65053 34.3913 5.65053C34.8511 5.65053 35.2495 5.83684 35.556 6.17842C35.7093 6.33368 35.8319 6.48894 35.9545 6.67526C36.1691 6.39579 36.4449 6.17842 36.7821 6.02316C37.1193 5.86789 37.4564 5.77474 37.8242 5.77474C38.1614 5.77474 38.4679 5.86789 38.7744 5.9921C39.0809 6.14737 39.3568 6.36473 39.5714 6.64421C39.8166 6.92368 39.9698 7.26526 40.0924 7.60684L40.1231 7.66894C40.215 7.38947 40.3376 7.10999 40.4603 6.86157C40.6748 6.52 40.9507 6.24052 41.3185 6.05421C41.6557 5.86789 42.0235 5.77474 42.3913 5.77474C42.9124 5.77474 43.3721 5.93 43.7706 6.20947C43.8932 6.14737 44.0158 6.08526 44.1078 6.02316C44.4143 5.86789 44.7208 5.77474 45.058 5.77474C45.0886 5.77474 45.0886 5.77474 45.1193 5.77474C45.4564 5.77474 45.7629 5.83684 46.0694 5.96105C46.376 6.08526 46.6518 6.24052 46.897 6.48894C47.1422 6.73736 47.3262 7.01684 47.4488 7.32736L47.5101 7.54473C47.9085 6.52 48.6135 5.71263 49.7783 5.71263C50.0541 5.71263 50.33 5.77474 50.5752 5.86789C50.9737 5.9921 51.3108 6.20947 51.5867 6.55105C51.8319 6.83052 52.0158 7.1721 52.1384 7.54473L52.1997 7.32736C52.3223 7.01684 52.5062 6.73736 52.7514 6.48894C52.966 6.27158 53.2419 6.08526 53.5484 5.96105C53.8855 5.83684 54.1921 5.77474 54.5292 5.77474C54.5599 5.77474 54.5599 5.77474 54.5905 5.77474C54.897 5.77474 55.2342 5.86789 55.5101 6.02316C55.7859 6.14737 56.0005 6.33368 56.215 6.52C56.2457 6.52 56.2457 6.48894 56.2763 6.45789C56.2457 6.42684 56.1844 6.39579 56.1537 6.36473C55.6633 5.86789 55.4181 5.24684 55.4181 4.53264C55.4181 3.84948 55.694 3.22843 56.1537 2.73159H56.1844C56.4296 2.48317 56.6748 2.32791 56.9813 2.17264C57.2878 2.04843 57.5944 1.98633 57.9315 1.98633C58.6058 1.98633 59.2189 2.2658 59.6786 2.76264C60.1691 3.25948 60.3836 3.88053 60.3836 4.56369C60.3836 5.24684 60.1691 5.86789 59.6786 6.36473C59.648 6.39579 59.6173 6.42684 59.556 6.45789C59.7399 6.61315 59.8932 6.79947 60.0158 7.01684C60.0771 7.14105 60.1384 7.23421 60.1691 7.35842C60.5675 6.83052 61.0886 6.45789 61.7016 6.17842C62.376 5.86789 63.1116 5.77474 63.8779 5.77474C64.4296 5.77474 65.012 5.80579 65.5331 5.96105C66.2074 6.14737 66.943 6.45789 67.3721 7.04789C67.5254 7.29631 67.648 7.54473 67.6786 7.85526ZM66.8817 9.71841C66.8511 9.71841 66.7898 9.74946 66.7591 9.78051C66.7898 9.78051 66.8204 9.81156 66.8511 9.84262C66.8511 9.78051 66.8511 9.74946 66.8817 9.71841ZM60.3223 11.1779V11.2089H60.353C60.353 11.1779 60.353 11.1779 60.353 11.1779C60.3223 11.1779 60.3223 11.1779 60.3223 11.1779ZM70.6212 18.6305C70.8357 18.32 71.1116 18.0405 71.4488 17.8542C71.8166 17.6368 72.215 17.5436 72.6748 17.5436C73.1039 17.5436 73.5024 17.6679 73.8702 17.8852C74.2074 18.1026 74.5139 18.4131 74.6978 18.7547C74.9124 19.1273 75.035 19.5621 75.035 19.9657V28.3499C75.035 29.0331 74.7898 29.6231 74.33 30.0889C74.33 30.1199 74.33 30.1199 74.2993 30.1199C73.8396 30.5857 73.2572 30.8031 72.6135 30.8031C71.9698 30.8031 71.4181 30.5857 70.9583 30.1199H70.9277C70.8051 29.9957 70.7131 29.8715 70.6212 29.7162C70.5292 29.8404 70.4373 29.9957 70.3147 30.0889C70.3147 30.1199 70.284 30.1199 70.284 30.1199C69.8242 30.5857 69.2419 30.8031 68.5982 30.8031C67.9545 30.8031 67.4028 30.5857 66.943 30.1199C66.9124 30.1199 66.9124 30.1199 66.9124 30.1199C66.7898 29.9957 66.6978 29.8715 66.6058 29.7162C66.5139 29.8715 66.4219 29.9957 66.2993 30.1199C65.8396 30.5857 65.2265 30.8031 64.5829 30.8031C64.4603 30.8031 64.307 30.772 64.1844 30.7099L63.4181 30.2441C62.8664 30.6478 62.2227 30.8031 61.5177 30.8031C61.1806 30.8031 60.874 30.772 60.5369 30.7099C59.9852 30.6168 59.4641 30.3683 58.9737 30.0268C58.6058 29.7783 58.2993 29.4678 57.9928 29.1262C57.8702 29.5299 57.625 29.9025 57.2878 30.2131C56.8281 30.5857 56.2763 30.8031 55.694 30.8031C55.4181 30.8031 55.1422 30.772 54.897 30.6789H54.8664C54.4373 30.5236 54.0694 30.2441 53.7629 29.9025C53.4564 29.5299 53.3032 29.0952 53.2419 28.6604L53.2112 28.2568L52.9967 28.971C52.874 29.3747 52.7208 29.7473 52.4756 30.0578C52.2304 30.3683 51.9239 30.5857 51.556 30.7099C51.3108 30.8031 51.0043 30.8652 50.7285 30.8652C50.2074 30.8652 49.7476 30.6789 49.3491 30.3373C48.9813 29.9647 48.7361 29.4989 48.5829 29.002L48.3683 28.2568L48.3376 28.6604C48.2763 29.1262 48.0924 29.5299 47.8166 29.9025C47.5101 30.2441 47.1422 30.5236 46.7131 30.6789C46.6825 30.6789 46.6825 30.6789 46.6825 30.6789C46.4066 30.772 46.1614 30.8031 45.8855 30.8031C45.3032 30.8031 44.7514 30.5857 44.2917 30.2131C43.8319 29.8094 43.5254 29.2815 43.4641 28.6604C43.4641 28.6294 43.4641 28.5983 43.4641 28.5673C43.4641 28.3499 43.4641 28.1326 43.4947 27.9462C43.4947 27.9152 43.4947 27.8841 43.4947 27.8841L44.6595 20.8973C44.7514 20.3694 44.9353 19.8726 45.2725 19.4689C45.579 19.0342 46.0081 18.7236 46.4986 18.5684C46.8664 18.4131 47.2648 18.351 47.6633 18.351C48.307 18.351 48.92 18.5373 49.4411 18.941C49.9622 19.3447 50.2993 19.8726 50.4832 20.5247L50.7898 21.5494L51.0656 20.5247C51.2495 19.8726 51.6173 19.3447 52.1384 18.941C52.6901 18.5373 53.2725 18.351 53.9162 18.351C54.3147 18.351 54.7131 18.4131 55.0809 18.5684C55.5714 18.7236 55.9698 19.0342 56.307 19.4689C56.6135 19.8726 56.8281 20.3694 56.8894 20.8973L57.3798 23.8163C57.4104 23.7231 57.4411 23.661 57.5024 23.5989C57.8089 22.9468 58.238 22.3878 58.7898 21.9531C59.3415 21.5184 59.9545 21.2078 60.6288 21.0836C60.9047 21.0215 61.2112 20.9594 61.5177 20.9594C62.1921 20.9594 62.8357 21.1457 63.4181 21.5494L64.215 21.1147C64.4296 20.9594 64.7055 20.8663 65.012 20.8663C65.4411 20.8663 65.8702 21.0526 66.1767 21.3942C66.1767 21.3942 66.1767 21.4252 66.2074 21.4252V19.9347C66.2074 19.5 66.33 19.0963 66.5445 18.7236C66.7591 18.351 67.035 18.0715 67.4028 17.8542C67.8013 17.6368 68.1997 17.5436 68.6288 17.5436C69.058 17.5436 69.4871 17.6679 69.8549 17.8852C70.1614 18.0715 70.4066 18.32 70.6212 18.6305ZM61.7323 26.021C61.7323 26.1452 61.7629 26.2384 61.8242 26.3315C61.8855 26.3936 61.9162 26.4247 61.9775 26.4247C62.0388 26.4247 62.0695 26.4247 62.1001 26.3936C62.1614 26.3626 62.1921 26.3315 62.2227 26.2694V26.2384C62.2534 26.2073 62.284 26.1762 62.284 26.1452C62.284 26.052 62.284 25.9278 62.284 25.8347C62.2534 25.7105 62.2227 25.5862 62.1001 25.5241C62.0695 25.4931 62.0081 25.462 61.9775 25.462C61.9162 25.462 61.9162 25.4931 61.8855 25.5241C61.7936 25.5862 61.7629 25.7105 61.7323 25.8347C61.7323 25.8347 61.7323 25.8657 61.7323 25.8968C61.7323 25.9278 61.7323 25.9899 61.7323 26.021ZM31.1116 10.8052C31.1116 10.8984 31.1422 11.0226 31.2035 11.1158C31.2648 11.1779 31.2955 11.2089 31.3875 11.2089C31.4181 11.2089 31.4488 11.1779 31.5101 11.1468C31.5407 11.1158 31.5714 11.0847 31.602 11.0537C31.602 11.0226 31.602 11.0226 31.6327 10.9916C31.6327 10.9605 31.6633 10.9295 31.6633 10.8984C31.6633 10.8052 31.6633 10.7121 31.6633 10.5879C31.6327 10.4637 31.602 10.3395 31.4794 10.2774C31.4488 10.2774 31.3875 10.2463 31.3568 10.2463C31.3262 10.2463 31.2955 10.2463 31.2648 10.3084C31.1729 10.3705 31.1422 10.4947 31.1116 10.5879C31.1116 10.6189 31.1116 10.65 31.1116 10.65C31.1116 10.7121 31.1116 10.7431 31.1116 10.8052Z" fill="white"/>
<path d="M44.261 28.5685C44.261 28.3201 44.261 28.1338 44.2916 28.0096L45.4564 21.0228C45.5177 20.6191 45.6709 20.2775 45.9161 19.967C46.1307 19.6564 46.4372 19.4391 46.7744 19.3149C47.0809 19.2217 47.3567 19.1596 47.6633 19.1596C48.123 19.1596 48.5828 19.2838 48.9506 19.5943C49.3184 19.8738 49.5943 20.2775 49.7169 20.7433L50.7897 24.4385L51.8318 20.7433C51.9851 20.2464 52.261 19.8738 52.6288 19.5943C53.0272 19.2838 53.4564 19.1596 53.9161 19.1596C54.2226 19.1596 54.4985 19.2217 54.805 19.3149C55.1422 19.4391 55.4487 19.6564 55.6633 19.967C55.8778 20.2464 56.0311 20.6191 56.123 21.0228L57.2878 28.0096C57.2878 28.1338 57.2878 28.3201 57.2878 28.5685C57.2571 28.9722 57.0732 29.3138 56.7667 29.5933C56.4602 29.8417 56.0924 29.9969 55.6939 29.9969C55.51 29.9969 55.3261 29.9659 55.1422 29.9038C54.8357 29.8106 54.5905 29.6243 54.3759 29.3759C54.192 29.1275 54.0694 28.848 54.0387 28.5685L53.5483 24.3454L52.2303 28.7548C52.1077 29.0964 51.9851 29.3759 51.8318 29.5622C51.7092 29.7485 51.5253 29.8727 51.3108 29.9348C51.0656 30.028 50.8816 30.059 50.7284 30.059C50.4219 30.059 50.146 29.9659 49.9008 29.7175C49.6556 29.5001 49.4717 29.1896 49.3491 28.7548L48.0311 24.3454L47.5406 28.5685C47.51 28.848 47.3874 29.1275 47.1728 29.3759C46.9889 29.6243 46.7437 29.8106 46.4372 29.9038C46.2533 29.9659 46.0694 29.9969 45.8855 29.9969C45.487 29.9969 45.1192 29.8417 44.8127 29.5933C44.5062 29.3138 44.3223 28.9722 44.261 28.5685ZM60.782 21.8612C61.0885 21.7991 61.3338 21.768 61.5177 21.768C62.2226 21.768 62.805 22.0164 63.2954 22.4822V22.5133L64.6134 21.7991C64.7054 21.737 64.8587 21.7059 65.0119 21.7059C65.2265 21.7059 65.441 21.768 65.5943 21.9543C65.9621 22.358 66.1767 22.8549 66.1767 23.4138V28.3511C66.1767 28.848 66.0234 29.2206 65.7169 29.5311C65.4104 29.8417 65.0426 29.9969 64.5828 29.9969L63.2954 29.2206V29.3138C62.8357 29.7796 62.2533 29.9969 61.5177 29.9969C61.2724 29.9969 60.9966 29.9659 60.6901 29.9348C60.261 29.8417 59.8318 29.6554 59.4334 29.3759C59.0043 29.0654 58.6671 28.6927 58.3606 28.2269C58.146 27.8854 57.9928 27.5127 57.9008 27.109C57.7782 26.7364 57.7475 26.2706 57.7475 25.7738C57.7782 25.1217 57.9315 24.5006 58.2073 23.9417C58.4832 23.4138 58.851 22.948 59.3108 22.5754C59.7705 22.2027 60.261 21.9854 60.782 21.8612ZM60.9046 25.9601C60.9046 26.3017 60.9966 26.5812 61.2111 26.8606C61.4257 27.109 61.6709 27.2333 61.9774 27.2333C62.192 27.2333 62.3452 27.2022 62.5292 27.078C62.6824 26.9848 62.8357 26.8296 62.9276 26.6433C63.0196 26.488 63.0502 26.3638 63.0809 26.2085C63.0809 26.1154 63.0809 25.9601 63.0809 25.7738C63.0196 25.2769 62.805 24.9354 62.4372 24.7801C62.2533 24.718 62.1 24.6559 61.9774 24.6559C61.7322 24.6559 61.487 24.7491 61.3031 24.9354C61.1192 25.1527 60.9966 25.4012 60.9353 25.7117C60.9353 25.7738 60.9353 25.8048 60.9353 25.8359C60.9353 25.8669 60.9353 25.9291 60.9046 25.9601ZM67.4947 29.5311C67.1575 29.2206 67.0043 28.8169 67.0043 28.3822V19.9359C67.0043 19.6564 67.0656 19.408 67.2188 19.1596C67.3721 18.9112 67.556 18.6938 67.8012 18.5696C68.0464 18.4143 68.3223 18.3522 68.6288 18.3522C68.9046 18.3522 69.1805 18.4143 69.4257 18.5696C69.6709 18.7249 69.8548 18.9112 69.9774 19.1596C70.1307 19.408 70.192 19.6875 70.192 19.967V28.3511C70.192 28.8169 70.0387 29.2206 69.7322 29.5311C69.4257 29.8417 69.0272 29.9969 68.5981 29.9969C68.169 29.9969 67.8012 29.8417 67.4947 29.5311ZM71.51 29.5311C71.1728 29.2206 71.0196 28.8169 71.0196 28.3822V19.9359C71.0196 19.6564 71.1115 19.408 71.2341 19.1596C71.3874 18.9112 71.5713 18.6938 71.8472 18.5696C72.0924 18.4143 72.3682 18.3522 72.6441 18.3522C72.9506 18.3522 73.1958 18.4143 73.441 18.5696C73.6862 18.7249 73.8702 18.9112 74.0234 19.1596C74.146 19.408 74.2073 19.6875 74.2073 19.967V28.3511C74.2073 28.8169 74.0541 29.2206 73.7475 29.5311C73.441 29.8417 73.0426 29.9969 72.6134 29.9969C72.1843 29.9969 71.8165 29.8417 71.51 29.5311ZM18.9123 14.2533C18.5751 13.8807 18.4219 13.477 18.4219 13.0112V5.90017C18.4219 5.34123 18.5751 4.90649 18.8816 4.56492C19.1882 4.22334 19.5866 4.06808 20.077 4.06808H23.1728C23.9391 4.06808 24.6134 4.22334 25.2265 4.56492C25.8395 4.90649 26.2993 5.34123 26.6364 5.93123C26.9736 6.49017 27.1269 7.14228 27.1269 7.85648C27.0962 8.85016 26.7897 9.68858 26.1767 10.3717C25.5636 11.0238 24.7361 11.4275 23.6633 11.5517C23.4487 11.5828 23.2341 11.5828 23.0502 11.5828H21.7322V13.0423C21.7322 13.5391 21.579 13.9738 21.2418 14.2844C20.9353 14.5949 20.5368 14.7501 20.1077 14.7501C19.6173 14.7501 19.2188 14.5949 18.9123 14.2533ZM21.7322 8.6328H23.0809C23.2954 8.6328 23.4793 8.57069 23.6326 8.41543C23.7859 8.26017 23.8778 8.0428 23.8778 7.85648C23.8778 7.63912 23.7859 7.4528 23.6326 7.29754C23.4793 7.14228 23.2954 7.04912 23.0809 7.04912H21.7322V8.6328ZM30.192 6.64543C30.4985 6.58333 30.7131 6.55228 30.897 6.55228C31.602 6.55228 32.1843 6.76964 32.6747 7.26649V7.29754L33.9928 6.58333C34.1154 6.49017 34.238 6.45912 34.3912 6.45912C34.6364 6.45912 34.8203 6.55228 34.9736 6.73859C35.3721 7.11122 35.556 7.60806 35.556 8.19806V13.1354C35.556 13.6012 35.4027 14.0049 35.0962 14.3154C34.8203 14.5949 34.4219 14.7501 33.9928 14.7501L32.6747 14.0049V14.067C32.2456 14.5328 31.6326 14.7812 30.897 14.7812C30.6518 14.7812 30.3759 14.7501 30.1 14.688C29.6403 14.5949 29.2418 14.4086 28.8127 14.1291C28.4142 13.8496 28.0464 13.477 27.7399 13.0112C27.5253 12.6386 27.3721 12.2659 27.2801 11.8933C27.1882 11.4896 27.1269 11.0549 27.1269 10.527C27.1575 9.8749 27.3108 9.2849 27.5866 8.72595C27.8625 8.16701 28.2303 7.70122 28.6901 7.35964C29.1498 6.98701 29.6403 6.73859 30.192 6.64543ZM30.3146 10.7444C30.3146 11.0859 30.4065 11.3654 30.5905 11.6138C30.805 11.8623 31.0502 12.0175 31.3874 12.0175C31.5713 12.0175 31.7552 11.9554 31.9085 11.8623C32.0924 11.738 32.215 11.6138 32.3069 11.3965C32.3989 11.2723 32.4295 11.117 32.4602 10.9928C32.4602 10.8686 32.4602 10.7444 32.4602 10.527C32.3989 10.0612 32.1843 9.71964 31.8165 9.53332C31.6633 9.47121 31.51 9.44016 31.3567 9.44016C31.1115 9.44016 30.897 9.53332 30.6824 9.71964C30.4985 9.90595 30.3759 10.1544 30.3452 10.4649C30.3146 10.527 30.3146 10.5581 30.3146 10.5891C30.3146 10.6512 30.3146 10.6823 30.3146 10.7444ZM37.1192 6.76964C37.3338 6.64543 37.579 6.58333 37.8242 6.58333C38.0387 6.58333 38.2226 6.64543 38.4372 6.73859C38.6211 6.83175 38.805 6.98701 38.9583 7.17333C39.1115 7.35964 39.2341 7.60806 39.3261 7.88754L40.1537 10.1544L40.8893 7.91859C40.9506 7.73227 41.0426 7.51491 41.1652 7.26649C41.2878 7.04912 41.4717 6.89386 41.6862 6.76964C41.9008 6.64543 42.146 6.58333 42.3912 6.58333C42.851 6.58333 43.2801 6.76964 43.6173 7.14228C43.8625 7.42175 43.9851 7.76333 43.9851 8.19806C43.9851 8.41543 43.9544 8.66385 43.8318 8.91227L40.3069 17.1412C39.9698 17.9486 39.4793 18.3212 38.805 18.3212C38.6824 18.3212 38.5292 18.2901 38.3146 18.228C37.9774 18.1349 37.7016 17.9486 37.5177 17.6691C37.3338 17.4207 37.2418 17.1412 37.2418 16.8307C37.2418 16.5822 37.3031 16.3649 37.3951 16.1475L38.4985 13.8496L36.3223 8.78806C36.2303 8.6328 36.1997 8.44648 36.1997 8.22911C36.1997 7.91859 36.2916 7.63912 36.4449 7.35964C36.5981 7.08017 36.8433 6.89386 37.1192 6.76964ZM45.1192 6.58333C45.3338 6.58333 45.5483 6.61438 45.7629 6.70754C46.0081 6.8007 46.192 6.92491 46.3452 7.08017C46.4985 7.23543 46.6211 7.42175 46.6824 7.60806L47.51 10.0302L48.1843 8.01175C48.5215 7.01806 49.0426 6.52122 49.7782 6.52122C49.9315 6.52122 50.1154 6.58333 50.3606 6.64543C50.6058 6.70754 50.8203 6.8628 50.9736 7.08017C51.1575 7.26649 51.3108 7.57701 51.464 8.01175L52.1384 10.0302L52.9659 7.60806C53.0272 7.42175 53.1498 7.23543 53.3031 7.08017C53.4564 6.92491 53.6403 6.8007 53.8548 6.70754C54.0694 6.61438 54.2839 6.58333 54.5292 6.58333C54.7437 6.58333 54.9583 6.64543 55.1728 6.76964C55.4487 6.89386 55.6633 7.08017 55.8165 7.32859C55.9698 7.60806 56.0617 7.88754 56.0617 8.19806C56.0617 8.50859 56.0004 8.75701 55.8778 9.03648L53.6709 13.5701C53.3031 14.3154 52.782 14.688 52.077 14.688C51.7705 14.688 51.4947 14.5638 51.2495 14.3775C50.9736 14.1912 50.7897 13.9428 50.6364 13.6012L49.8088 11.5207L48.9813 13.6012C48.8893 13.8186 48.7974 14.0049 48.6441 14.1601C48.4908 14.3465 48.3376 14.4707 48.1537 14.5328C47.9698 14.6259 47.7552 14.688 47.5713 14.688C47.2035 14.688 46.897 14.5949 46.6518 14.4396C46.4065 14.2533 46.1613 13.9738 45.9774 13.5701L43.7705 9.03648C43.6479 8.72595 43.5866 8.47753 43.5866 8.19806C43.5866 7.88754 43.6479 7.60806 43.8012 7.35964C43.9851 7.08017 44.1997 6.89386 44.4755 6.76964C44.6901 6.64543 44.9046 6.58333 45.1192 6.58333ZM57.9315 14.7812C57.4717 14.7812 57.1039 14.6259 56.7974 14.3154C56.4908 13.9738 56.3376 13.6012 56.3376 13.1354V8.22911C56.3376 7.94964 56.3989 7.67017 56.5521 7.42175C56.6748 7.17333 56.8893 6.98701 57.1345 6.83175C57.3797 6.67649 57.6249 6.61438 57.9315 6.61438C58.2073 6.61438 58.4832 6.70754 58.7284 6.83175C58.9736 6.98701 59.1575 7.17333 59.3108 7.42175C59.464 7.67017 59.5253 7.94964 59.5253 8.26017V13.1354C59.5253 13.6012 59.3721 13.9738 59.0656 14.2844C58.7284 14.6259 58.3606 14.7812 57.9315 14.7812ZM56.7361 5.77596C56.3989 5.43439 56.2456 5.0307 56.2456 4.53386C56.2456 4.06808 56.3989 3.66439 56.7361 3.29176C56.92 3.1365 57.0732 3.01229 57.2878 2.95018C57.5023 2.85703 57.6862 2.79492 57.9315 2.79492C58.3912 2.79492 58.7897 2.98124 59.0962 3.32281C59.4334 3.66439 59.5866 4.09913 59.5866 4.56492C59.5866 5.06176 59.4334 5.46544 59.0962 5.77596C58.7897 6.11754 58.3912 6.2728 57.9315 6.2728C57.441 6.2728 57.0426 6.11754 56.7361 5.77596ZM61.0272 14.2223C60.4142 13.8186 60.1077 13.4149 60.1077 12.9491C60.1077 12.8249 60.1384 12.7007 60.169 12.5765C60.2303 12.328 60.3836 12.1417 60.6288 11.9865C60.8433 11.8312 61.0885 11.7691 61.4257 11.7691C61.6096 11.7691 61.8242 11.8002 62.1307 11.8933L62.4066 11.9865L62.6211 12.0486C62.9276 12.1728 63.2035 12.2659 63.4793 12.297H63.5406H63.7246C63.8472 12.297 63.9391 12.2659 63.9698 12.1728C63.9698 12.0175 63.9391 11.9244 63.8165 11.8623C63.8165 11.8623 63.8165 11.8312 63.7859 11.8312C63.7859 11.8312 63.7859 11.8312 63.7552 11.8002H63.7246L63.602 11.738L63.2954 11.6759L62.9276 11.5517L62.6518 11.4896C62.2226 11.3654 61.8855 11.2412 61.579 11.117C61.3031 10.9617 61.0885 10.8065 60.9353 10.6202C60.7514 10.4649 60.6288 10.2475 60.5368 9.99911C60.4142 9.71964 60.3529 9.44016 60.3529 9.16069C60.3529 8.72595 60.5062 8.29122 60.782 7.88754C61.0885 7.48385 61.487 7.17333 62.0081 6.92491C62.5598 6.70754 63.1728 6.58333 63.8778 6.58333C64.4295 6.58333 64.92 6.64543 65.3491 6.76964C66.0234 6.95596 66.4832 7.20438 66.7284 7.51491C66.851 7.70122 66.9123 7.88754 66.9123 8.13596C66.9123 8.38438 66.8203 8.60174 66.6977 8.78806C66.5445 8.97437 66.3299 9.09858 66.0847 9.16069C65.9928 9.19174 65.8702 9.22279 65.7475 9.22279C65.5636 9.22279 65.3184 9.19174 65.0426 9.09858L64.6134 9.00543L64.3989 8.94332L64.1537 8.88122C64.0924 8.88122 64.0311 8.88122 64.0004 8.88122C63.7246 8.88122 63.5713 8.88122 63.51 8.88122V8.91227L63.4487 8.94332C63.418 8.97437 63.418 9.00543 63.418 9.03648C63.418 9.09858 63.4487 9.16069 63.5406 9.25385C63.5713 9.25385 63.602 9.25385 63.602 9.2849C63.6326 9.2849 63.6326 9.2849 63.6633 9.31595L63.7859 9.347L64.0004 9.40911L64.4908 9.59542L64.8587 9.68858L65.1652 9.81279C65.4717 9.90595 65.7782 10.0612 66.1154 10.3096C66.4525 10.527 66.6977 10.8065 66.851 11.117C67.0349 11.4586 67.0962 11.8002 67.0962 12.1417C67.0962 12.887 66.7897 13.508 66.1154 14.0359C65.533 14.5328 64.7054 14.7812 63.7246 14.7812C63.5713 14.7812 63.3567 14.7812 63.0809 14.7501C62.2226 14.688 61.5177 14.5017 61.0272 14.2223ZM75.9544 10.1544C75.9544 10.6202 75.8625 10.9617 75.6786 11.1481C75.464 11.3654 75.1269 11.4586 74.6671 11.4586H70.9276C70.9276 11.4896 71.0196 11.5828 71.1728 11.738C71.3261 11.8312 71.4487 11.9244 71.5713 11.9554C71.6939 12.0175 71.8472 12.0486 72.0617 12.0796C72.2763 12.1107 72.5521 12.1417 72.828 12.1417C73.1345 12.1107 73.5023 12.0486 73.9315 11.9244C74.2686 11.8312 74.5138 11.8002 74.6671 11.8002C75.0349 11.8002 75.3414 11.8933 75.556 12.1417C75.8012 12.3591 75.9238 12.6386 75.9238 12.9491C75.9238 13.0733 75.8931 13.1665 75.8931 13.2286C75.8318 13.4149 75.7399 13.5701 75.6479 13.7254C75.5253 13.8496 75.3721 13.9738 75.2188 14.098C75.0349 14.2223 74.759 14.3154 74.4525 14.4396C74.0541 14.5638 73.6249 14.657 73.1958 14.688C72.92 14.7501 72.6134 14.7501 72.2763 14.7501C71.5713 14.7501 70.9276 14.657 70.3452 14.4396C69.7629 14.2533 69.2725 13.9428 68.8433 13.5701C68.4449 13.1975 68.1077 12.7628 67.8931 12.2349C67.6786 11.738 67.5866 11.1791 67.5866 10.5581C67.5866 10.0302 67.7092 9.50227 67.9238 9.00543C68.1384 8.53964 68.4449 8.1049 68.8127 7.76333C69.2111 7.3907 69.6403 7.11122 70.1613 6.92491C70.6824 6.70754 71.2648 6.61438 71.8472 6.61438C72.6441 6.61438 73.3797 6.8007 73.9928 7.17333C74.3912 7.3907 74.7284 7.67017 75.0043 8.01175C75.3108 8.35332 75.5253 8.6949 75.7092 9.06753C75.8625 9.44016 75.9544 9.81279 75.9544 10.1544ZM70.9583 9.8749H72.6748C72.6748 9.81279 72.6441 9.75069 72.6441 9.71964C72.5828 9.25385 72.2456 9.03648 71.6633 9.03648C71.3261 9.09858 71.1115 9.347 70.9889 9.75069C70.9583 9.81279 70.9583 9.84384 70.9583 9.8749Z" fill="#157571"/>
<path fill-rule="evenodd" clip-rule="evenodd" d="M25.4104 33.9083C27.0962 33.9083 28.4142 35.2746 28.4142 36.9825C28.4142 38.6594 27.0962 40.0257 25.4104 40.0257C23.7552 40.0257 22.4065 38.6594 22.4065 36.9825C22.4065 35.2746 23.7552 33.9083 25.4104 33.9083ZM12.2916 4.16L16.5521 21.301H38.0081C39.3874 21.301 40.5215 22.4499 40.5215 23.8473C40.5215 25.2757 39.3874 26.4247 38.0081 26.4247H17.8088L18.0234 27.2941H38.0081C39.3874 27.2941 40.5215 28.4431 40.5215 29.8404C40.5215 31.2689 39.3874 32.4178 38.0081 32.4178H16.5521C16.3989 32.4178 16.2456 32.3867 16.123 32.3867C15.1115 32.3246 14.192 31.6104 13.9468 30.5546L8.03107 6.55105H9.34908C10.7897 6.55105 12.0157 5.52632 12.2916 4.16ZM3.89314 1.98633H9.25712C10.0847 1.98633 10.7284 2.79369 10.7284 3.75632C10.7284 4.75 10.0847 5.52632 9.25712 5.52632H3.89314C3.0962 5.52632 2.42188 4.75 2.42188 3.75632C2.42188 2.79369 3.0962 1.98633 3.89314 1.98633ZM33.1039 33.9083C34.759 33.9083 36.1077 35.2746 36.1077 36.9825C36.1077 38.6594 34.759 40.0257 33.1039 40.0257C31.418 40.0257 30.0694 38.6594 30.0694 36.9825C30.0694 35.2746 31.418 33.9083 33.1039 33.9083ZM33.1039 34.7157C34.3299 34.7157 35.3108 35.7094 35.3108 36.9825C35.3108 38.2246 34.3299 39.2183 33.1039 39.2183C31.8778 39.2183 30.8663 38.2246 30.8663 36.9825C30.8663 35.7094 31.8778 34.7157 33.1039 34.7157ZM33.1039 35.2746C34.0234 35.2746 34.7897 36.0199 34.7897 36.9825C34.7897 37.9141 34.0234 38.6594 33.1039 38.6594C32.1537 38.6594 31.418 37.9141 31.418 36.9825C31.418 36.0199 32.1537 35.2746 33.1039 35.2746ZM25.4104 34.7157C26.6364 34.7157 27.6479 35.7094 27.6479 36.9825C27.6479 38.2246 26.6364 39.2183 25.4104 39.2183C24.1843 39.2183 23.2035 38.2246 23.2035 36.9825C23.2035 35.7094 24.1843 34.7157 25.4104 34.7157ZM25.4104 35.2746C26.3606 35.2746 27.0962 36.0199 27.0962 36.9825C27.0962 37.9141 26.3606 38.6594 25.4104 38.6594C24.4908 38.6594 23.7246 37.9141 23.7246 36.9825C23.7246 36.0199 24.4908 35.2746 25.4104 35.2746Z" fill="#157571"/>
</svg>
