<svg width="137" height="70" viewBox="0 0 137 70" fill="none" xmlns="http://www.w3.org/2000/svg">
<path fill-rule="evenodd" clip-rule="evenodd" d="M116.211 11.2328C117.136 10.4733 118.115 9.87654 119.203 9.44253C120.509 8.95428 121.869 8.73727 123.229 8.73727C123.284 8.73727 123.284 8.73727 123.284 8.73727C125.134 8.73727 126.875 9.17128 128.452 10.0935C129.432 10.636 130.248 11.3413 130.955 12.1551C131.662 12.9146 132.206 13.7283 132.642 14.7048C133.077 15.6271 133.349 16.6036 133.403 17.6344C133.403 17.6886 133.403 17.6886 133.403 17.7429C133.403 18.7194 133.24 19.6416 132.805 20.4554C133.131 21.1064 133.294 21.8659 133.294 22.6254C133.294 23.0594 133.24 23.4934 133.131 23.9274C132.914 24.5784 132.642 25.1752 132.206 25.7177C131.771 26.2602 131.281 26.6942 130.683 27.0197C130.084 27.3995 129.432 27.6707 128.779 27.8877C128.724 27.942 128.724 27.942 128.67 27.942C127.799 28.2132 126.929 28.376 126.004 28.4845C125.351 28.593 124.644 28.6472 123.991 28.6472C122.468 28.6472 120.999 28.4302 119.639 27.942C118.278 27.4537 117.027 26.7485 115.993 25.8262C115.993 25.772 115.939 25.772 115.939 25.772C115.612 26.0975 115.232 26.423 114.851 26.7485C113.11 28.159 110.988 28.7015 108.812 28.7015C108.322 28.7015 107.887 28.6472 107.452 28.593C105.765 28.4845 104.024 28.159 102.555 27.291C102.555 27.2367 102.555 27.2367 102.555 27.2367C102.501 27.1825 102.446 27.1825 102.392 27.1282C101.304 28.1047 99.9979 28.6472 98.5289 28.6472C96.9512 28.6472 95.591 28.0505 94.5029 27.0197C94.0132 26.4772 93.6324 25.9347 93.3059 25.338C92.2722 27.291 90.4768 28.4845 88.1374 28.4845C88.1374 28.4845 88.083 28.4845 88.0286 28.4845C86.9404 28.4302 85.8523 28.1047 84.9818 27.4537C84.6554 27.1825 84.3833 26.9655 84.1113 26.6942C83.6217 27.2367 83.0776 27.6707 82.3703 27.9962C81.7174 28.3217 80.9558 28.4845 80.1941 28.4845C80.1397 28.4845 80.1397 28.4845 80.1397 28.4845C78.9971 28.4845 77.909 28.2132 76.9297 27.5622C75.9504 26.9112 75.2431 25.989 74.7535 24.9582L73.5565 22.5712L69.8569 31.0885C68.8776 33.3128 67.0822 34.8861 64.5795 34.8861C63.981 34.8861 63.437 34.7233 62.8385 34.5606C61.7504 34.1808 60.7711 33.5298 60.0638 32.6075C59.3021 31.6853 58.9757 30.546 58.9757 29.4067C58.9757 28.81 59.0845 28.2132 59.2477 27.6707C58.3228 28.3217 57.1803 28.6472 56.0377 28.6472C55.4937 28.6472 55.0584 28.4845 54.6232 28.2675L53.9703 27.8877C52.9366 28.4302 51.7941 28.6472 50.5427 28.6472C49.8899 28.6472 49.237 28.593 48.5841 28.4302C47.3328 28.2132 46.2446 27.725 45.2109 27.0197C44.1772 26.3145 43.3067 25.338 42.545 24.3072C42.545 24.2529 42.545 24.1987 42.4906 24.1987C42.1098 23.4934 41.7833 22.7882 41.5113 22.0287C40.4776 22.5169 39.2807 22.8424 38.0837 23.0052C37.7573 23.0052 37.4308 23.0594 37.1588 23.0594C37.05 24.5784 36.5059 25.9347 35.4178 26.9655C34.2753 28.0505 32.9151 28.6472 31.3918 28.6472C29.7596 28.6472 28.2906 27.9962 27.2025 26.857C27.2025 26.8027 27.1481 26.8027 27.1481 26.8027C26.1144 25.6635 25.5703 24.2529 25.5703 22.7339V10.3105C25.5703 8.73727 26.06 7.21826 27.1481 6.02475C28.2362 4.88548 29.7052 4.28873 31.3374 4.28873H36.8324C38.5734 4.28873 40.3144 4.61423 41.8377 5.48224C43.3611 6.296 44.5581 7.43526 45.4286 8.95428C45.5918 9.22553 45.755 9.55103 45.9182 9.87654C46.7887 9.38828 47.7136 9.00853 48.7473 8.84578C49.2914 8.68302 49.9443 8.62877 50.5427 8.62877C51.7397 8.62877 52.8822 8.84578 53.9159 9.38828L54.6232 9.06278C55.2761 8.62877 55.9833 8.46602 56.745 8.46602C57.8331 8.46602 58.8669 8.84578 59.683 9.60528C59.9006 9.49678 60.1182 9.33403 60.3902 9.22553C61.1519 8.90003 61.968 8.68302 62.8385 8.68302C63.6546 8.68302 64.4163 8.84578 65.1236 9.22553C65.7764 9.55103 66.3749 9.98504 66.8646 10.5275C67.2998 10.0393 67.7895 9.60528 68.3879 9.27978C69.1496 8.90003 70.0201 8.68302 70.945 8.68302C71.8155 8.68302 72.6316 8.90003 73.3933 9.22553C74.1006 8.90003 74.8079 8.73727 75.5695 8.68302C75.6784 8.68302 75.7328 8.68302 75.7872 8.68302C76.5489 8.68302 77.3105 8.79152 78.0178 9.06278C78.7251 9.38828 79.378 9.76804 79.9764 10.3105C79.9764 10.3648 80.0309 10.3648 80.0309 10.419C81.0102 9.27978 82.3703 8.57452 84.0569 8.57452C84.6554 8.57452 85.3082 8.73727 85.9067 8.90003C86.8316 9.17128 87.6477 9.71378 88.2462 10.419C88.3006 10.3648 88.3006 10.3648 88.3006 10.3648C88.8446 9.82229 89.4975 9.38828 90.2592 9.06278C90.9665 8.79152 91.7282 8.68302 92.4899 8.68302C92.5443 8.68302 92.5987 8.68302 92.6531 8.68302C92.7075 8.68302 92.7075 8.68302 92.7075 8.68302C92.7075 8.41177 92.6531 8.19477 92.6531 7.92352C92.6531 6.35025 93.2515 4.93973 94.3397 3.80047C94.3941 3.80047 94.3941 3.74622 94.4485 3.74622C94.9925 3.20372 95.591 2.82396 96.2983 2.49846C97.0056 2.2272 97.7673 2.06445 98.5289 2.06445C100.107 2.06445 101.576 2.71546 102.664 3.85472C103.752 4.99398 104.35 6.4045 104.35 7.97777C104.35 8.62877 104.242 9.22553 104.078 9.76804C104.242 9.71378 104.459 9.60528 104.622 9.49678C106.037 8.90003 107.56 8.68302 109.084 8.68302C110.172 8.68302 111.314 8.79152 112.403 9.06278C113.817 9.44253 115.232 10.0935 116.211 11.2328ZM121.053 30.4918C121.271 30.2748 121.543 30.112 121.815 29.9493C122.685 29.461 123.665 29.1897 124.698 29.244C125.732 29.244 126.657 29.5152 127.527 30.0578C128.398 30.546 129.051 31.2513 129.54 32.1193C130.03 32.933 130.302 33.9095 130.302 34.8861V49.5337C130.302 51.0527 129.758 52.4632 128.67 53.5483C128.67 53.6025 128.616 53.6568 128.561 53.711C127.473 54.6875 126.113 55.2843 124.589 55.2843C123.284 55.2843 122.087 54.8503 121.053 54.0365C120.019 54.796 118.822 55.2843 117.462 55.2843C116.157 55.2843 114.905 54.8503 113.926 54.0365C112.892 54.8503 111.695 55.23 110.335 55.23C109.845 55.23 109.41 55.1215 108.921 54.8503L108.268 54.4705C107.288 55.013 106.091 55.2843 104.894 55.2843C104.242 55.2843 103.534 55.1758 102.881 55.0673C101.684 54.8503 100.596 54.3078 99.5627 53.6568C99.345 53.494 99.1818 53.3313 98.9642 53.1685C98.801 53.4398 98.5833 53.6568 98.3113 53.8195C97.2232 54.7418 95.9718 55.23 94.5573 55.23C93.9044 55.23 93.3059 55.1215 92.7619 54.9588C92.7075 54.9588 92.6531 54.9588 92.5987 54.9045C91.6194 54.579 90.8033 53.9823 90.096 53.2227C90.0416 53.277 89.9872 53.3313 89.9328 53.4398C89.3343 54.145 88.5726 54.6875 87.7021 55.013C87.0492 55.23 86.3964 55.3928 85.7435 55.3928C84.4922 55.3928 83.2952 54.9045 82.3703 54.0365C82.0439 53.7653 81.8263 53.494 81.6086 53.1685C80.9013 53.9823 80.0853 54.579 79.1059 54.9045C79.0515 54.9588 78.9971 54.9588 78.9427 54.9588C78.3443 55.1215 77.7458 55.23 77.1473 55.23C75.7328 55.23 74.4814 54.7418 73.3933 53.8738C72.3052 52.8972 71.5979 51.6495 71.4347 50.239C71.4347 50.1305 71.4347 50.022 71.4347 49.9135C71.4347 49.5337 71.4347 49.0997 71.4891 48.72C71.4891 48.6115 71.4891 48.5572 71.4891 48.4487L73.6109 36.2966C73.7741 35.1031 74.2094 34.0723 74.9167 33.15C75.6784 32.2278 76.6033 31.5225 77.7458 31.0885C78.5619 30.8173 79.378 30.6003 80.3029 30.6003C81.7718 30.6003 83.132 31.0885 84.2745 31.9565C84.9274 32.4448 85.4171 32.9873 85.8523 33.584C86.2876 32.9873 86.7772 32.3905 87.4301 31.9565C88.5726 31.0885 89.9328 30.6003 91.4017 30.6003C92.2722 30.6003 93.1427 30.8173 93.9588 31.0885C95.1013 31.5225 96.0263 32.1735 96.7879 33.15C97.4952 34.0723 97.9305 35.1573 98.0937 36.2423L98.3657 37.9241C98.6377 37.7071 98.9098 37.4358 99.1818 37.2188C100.324 36.3508 101.63 35.6998 103.045 35.4286C103.643 35.3201 104.242 35.2116 104.894 35.2116C106.091 35.2116 107.234 35.4828 108.268 36.0253L108.975 35.6456C109.573 35.2658 110.335 35.0488 111.097 35.0488C111.314 35.0488 111.586 35.1031 111.804 35.1031V34.8318C111.804 33.8553 112.076 32.8788 112.566 32.0108C113.11 31.1428 113.817 30.4918 114.633 29.9493C115.558 29.461 116.537 29.1897 117.571 29.244C118.55 29.244 119.53 29.5152 120.4 30.0578C120.618 30.1663 120.835 30.329 121.053 30.4918Z" stroke="white" stroke-width="5.33242" stroke-linejoin="round"/>
<path fill-rule="evenodd" clip-rule="evenodd" d="M116.211 11.2328C117.136 10.4733 118.115 9.87654 119.203 9.44253C120.509 8.95428 121.869 8.73727 123.229 8.73727C123.284 8.73727 123.284 8.73727 123.284 8.73727C125.134 8.73727 126.875 9.17128 128.452 10.0935C129.432 10.636 130.248 11.3413 130.955 12.1551C131.662 12.9146 132.206 13.7283 132.642 14.7048C133.077 15.6271 133.349 16.6036 133.403 17.6344C133.403 17.6886 133.403 17.6886 133.403 17.7429C133.403 18.7194 133.24 19.6416 132.805 20.4554C133.131 21.1064 133.294 21.8659 133.294 22.6254C133.294 23.0594 133.24 23.4934 133.131 23.9274C132.914 24.5784 132.642 25.1752 132.206 25.7177C131.771 26.2602 131.281 26.6942 130.683 27.0197C130.084 27.3995 129.432 27.6707 128.779 27.8877C128.724 27.942 128.724 27.942 128.67 27.942C127.799 28.2132 126.929 28.376 126.004 28.4845C125.351 28.593 124.644 28.6472 123.991 28.6472C122.468 28.6472 120.999 28.4302 119.639 27.942C118.278 27.4537 117.027 26.7485 115.993 25.8262C115.993 25.772 115.939 25.772 115.939 25.772C115.612 26.0975 115.232 26.423 114.851 26.7485C113.11 28.159 110.988 28.7015 108.812 28.7015C108.322 28.7015 107.887 28.6472 107.452 28.593C105.765 28.4845 104.024 28.159 102.555 27.291C102.555 27.2367 102.555 27.2367 102.555 27.2367C102.501 27.1825 102.446 27.1825 102.392 27.1282C101.304 28.1047 99.9979 28.6472 98.5289 28.6472C96.9512 28.6472 95.591 28.0505 94.5029 27.0197C94.0132 26.4772 93.6324 25.9347 93.3059 25.338C92.2722 27.291 90.4768 28.4845 88.1374 28.4845C88.1374 28.4845 88.083 28.4845 88.0286 28.4845C86.9404 28.4302 85.8523 28.1047 84.9818 27.4537C84.6554 27.1825 84.3833 26.9655 84.1113 26.6942C83.6217 27.2367 83.0776 27.6707 82.3703 27.9962C81.7174 28.3217 80.9558 28.4845 80.1941 28.4845C80.1397 28.4845 80.1397 28.4845 80.1397 28.4845C78.9971 28.4845 77.909 28.2132 76.9297 27.5622C75.9504 26.9112 75.2431 25.989 74.7535 24.9582L73.5565 22.5712L69.8569 31.0885C68.8776 33.3128 67.0822 34.8861 64.5795 34.8861C63.981 34.8861 63.437 34.7233 62.8385 34.5606C61.7504 34.1808 60.7711 33.5298 60.0638 32.6075C59.3021 31.6853 58.9757 30.546 58.9757 29.4067C58.9757 28.81 59.0845 28.2132 59.2477 27.6707C58.3228 28.3217 57.1803 28.6472 56.0377 28.6472C55.4937 28.6472 55.0584 28.4845 54.6232 28.2675L53.9703 27.8877C52.9366 28.4302 51.7941 28.6472 50.5427 28.6472C49.8899 28.6472 49.237 28.593 48.5841 28.4302C47.3328 28.2132 46.2446 27.725 45.2109 27.0197C44.1772 26.3145 43.3067 25.338 42.545 24.3072C42.545 24.2529 42.545 24.1987 42.4906 24.1987C42.1098 23.4934 41.7833 22.7882 41.5113 22.0287C40.4776 22.5169 39.2807 22.8424 38.0837 23.0052C37.7573 23.0052 37.4308 23.0594 37.1588 23.0594C37.05 24.5784 36.5059 25.9347 35.4178 26.9655C34.2753 28.0505 32.9151 28.6472 31.3918 28.6472C29.7596 28.6472 28.2906 27.9962 27.2025 26.857C27.2025 26.8027 27.1481 26.8027 27.1481 26.8027C26.1144 25.6635 25.5703 24.2529 25.5703 22.7339V10.3105C25.5703 8.73727 26.06 7.21826 27.1481 6.02475C28.2362 4.88548 29.7052 4.28873 31.3374 4.28873H36.8324C38.5734 4.28873 40.3144 4.61423 41.8377 5.48224C43.3611 6.296 44.5581 7.43526 45.4286 8.95428C45.5918 9.22553 45.755 9.55103 45.9182 9.87654C46.7887 9.38828 47.7136 9.00853 48.7473 8.84578C49.2914 8.68302 49.9443 8.62877 50.5427 8.62877C51.7397 8.62877 52.8822 8.84578 53.9159 9.38828L54.6232 9.06278C55.2761 8.62877 55.9833 8.46602 56.745 8.46602C57.8331 8.46602 58.8669 8.84578 59.683 9.60528C59.9006 9.49678 60.1182 9.33403 60.3902 9.22553C61.1519 8.90003 61.968 8.68302 62.8385 8.68302C63.6546 8.68302 64.4163 8.84578 65.1236 9.22553C65.7764 9.55103 66.3749 9.98504 66.8646 10.5275C67.2998 10.0393 67.7895 9.60528 68.3879 9.27978C69.1496 8.90003 70.0201 8.68302 70.945 8.68302C71.8155 8.68302 72.6316 8.90003 73.3933 9.22553C74.1006 8.90003 74.8079 8.73727 75.5695 8.68302C75.6784 8.68302 75.7328 8.68302 75.7872 8.68302C76.5489 8.68302 77.3105 8.79152 78.0178 9.06278C78.7251 9.38828 79.378 9.76804 79.9764 10.3105C79.9764 10.3648 80.0308 10.3648 80.0308 10.419C81.0102 9.27978 82.3703 8.57452 84.0569 8.57452C84.6554 8.57452 85.3082 8.73727 85.9067 8.90003C86.8316 9.17128 87.6477 9.71378 88.2462 10.419C88.3006 10.3648 88.3006 10.3648 88.3006 10.3648C88.8446 9.82229 89.4975 9.38828 90.2592 9.06278C90.9665 8.79152 91.7282 8.68302 92.4899 8.68302C92.5443 8.68302 92.5987 8.68302 92.6531 8.68302C92.7075 8.68302 92.7075 8.68302 92.7075 8.68302C92.7075 8.41177 92.6531 8.19477 92.6531 7.92352C92.6531 6.35025 93.2515 4.93973 94.3397 3.80047C94.3941 3.80047 94.3941 3.74622 94.4485 3.74622C94.9925 3.20372 95.591 2.82396 96.2983 2.49846C97.0056 2.2272 97.7673 2.06445 98.5289 2.06445C100.107 2.06445 101.576 2.71546 102.664 3.85472C103.752 4.99398 104.35 6.4045 104.35 7.97777C104.35 8.62877 104.242 9.22553 104.078 9.76804C104.242 9.71378 104.459 9.60528 104.622 9.49678C106.037 8.90003 107.56 8.68302 109.084 8.68302C110.172 8.68302 111.314 8.79152 112.402 9.06278C113.817 9.44253 115.232 10.0935 116.211 11.2328ZM121.053 30.4918C121.271 30.2748 121.543 30.112 121.815 29.9493C122.685 29.461 123.665 29.1897 124.698 29.244C125.732 29.244 126.657 29.5152 127.527 30.0578C128.398 30.546 129.051 31.2513 129.54 32.1193C130.03 32.933 130.302 33.9095 130.302 34.8861V49.5337C130.302 51.0527 129.758 52.4632 128.67 53.5483C128.67 53.6025 128.616 53.6568 128.561 53.711C127.473 54.6875 126.113 55.2843 124.589 55.2843C123.284 55.2843 122.087 54.8503 121.053 54.0365C120.019 54.796 118.822 55.2843 117.462 55.2843C116.157 55.2843 114.905 54.8503 113.926 54.0365C112.892 54.8503 111.695 55.23 110.335 55.23C109.845 55.23 109.41 55.1215 108.921 54.8503L108.268 54.4705C107.288 55.013 106.091 55.2843 104.894 55.2843C104.242 55.2843 103.534 55.1758 102.881 55.0673C101.684 54.8503 100.596 54.3078 99.5627 53.6568C99.345 53.494 99.1818 53.3312 98.9642 53.1685C98.801 53.4398 98.5833 53.6568 98.3113 53.8195C97.2232 54.7418 95.9718 55.23 94.5573 55.23C93.9044 55.23 93.3059 55.1215 92.7619 54.9588C92.7075 54.9588 92.6531 54.9588 92.5987 54.9045C91.6194 54.579 90.8033 53.9823 90.096 53.2227C90.0416 53.277 89.9872 53.3312 89.9328 53.4398C89.3343 54.145 88.5726 54.6875 87.7021 55.013C87.0492 55.23 86.3964 55.3928 85.7435 55.3928C84.4922 55.3928 83.2952 54.9045 82.3703 54.0365C82.0439 53.7653 81.8263 53.494 81.6086 53.1685C80.9013 53.9823 80.0853 54.579 79.1059 54.9045C79.0515 54.9588 78.9971 54.9588 78.9427 54.9588C78.3443 55.1215 77.7458 55.23 77.1473 55.23C75.7328 55.23 74.4814 54.7418 73.3933 53.8738C72.3052 52.8972 71.5979 51.6495 71.4347 50.239C71.4347 50.1305 71.4347 50.022 71.4347 49.9135C71.4347 49.5337 71.4347 49.0997 71.4891 48.72C71.4891 48.6115 71.4891 48.5572 71.4891 48.4487L73.6109 36.2966C73.7741 35.1031 74.2094 34.0723 74.9167 33.15C75.6784 32.2278 76.6033 31.5225 77.7458 31.0885C78.5619 30.8173 79.378 30.6003 80.3029 30.6003C81.7718 30.6003 83.132 31.0885 84.2745 31.9565C84.9274 32.4448 85.4171 32.9873 85.8523 33.584C86.2876 32.9873 86.7772 32.3905 87.4301 31.9565C88.5726 31.0885 89.9328 30.6003 91.4017 30.6003C92.2722 30.6003 93.1427 30.8173 93.9588 31.0885C95.1013 31.5225 96.0263 32.1735 96.7879 33.15C97.4952 34.0723 97.9305 35.1573 98.0937 36.2423L98.3657 37.9241C98.6377 37.7071 98.9098 37.4358 99.1818 37.2188C100.324 36.3508 101.63 35.6998 103.045 35.4286C103.643 35.3201 104.242 35.2116 104.894 35.2116C106.091 35.2116 107.234 35.4828 108.268 36.0253L108.975 35.6456C109.573 35.2658 110.335 35.0488 111.097 35.0488C111.314 35.0488 111.586 35.1031 111.804 35.1031V34.8318C111.804 33.8553 112.076 32.8788 112.566 32.0108C113.11 31.1428 113.817 30.4918 114.633 29.9493C115.558 29.461 116.537 29.1897 117.571 29.244C118.55 29.244 119.53 29.5152 120.4 30.0578C120.618 30.1663 120.835 30.329 121.053 30.4918Z" fill="white"/>
<path fill-rule="evenodd" clip-rule="evenodd" d="M115.83 13.728C116.156 13.294 116.482 12.86 116.918 12.5345C117.734 11.7207 118.713 11.1782 119.747 10.7442C120.889 10.3102 122.032 10.1474 123.229 10.1474H123.283C124.861 10.1474 126.384 10.5272 127.745 11.2867C128.561 11.7749 129.268 12.3717 129.921 13.077C130.519 13.728 131.009 14.4875 131.335 15.3012C131.716 16.0607 131.934 16.8745 131.988 17.6883V17.7425C131.988 18.719 131.771 19.6955 131.063 20.455C131.607 21.0518 131.879 21.8113 131.879 22.6251C131.879 22.9506 131.825 23.2218 131.771 23.5473C131.607 23.9813 131.39 24.4696 131.063 24.8493C130.791 25.2291 130.356 25.5546 129.921 25.8258C129.431 26.1514 128.887 26.3684 128.343 26.5854C128.289 26.5854 128.289 26.5854 128.234 26.5854C127.472 26.8024 126.656 26.9651 125.84 27.0736C125.187 27.1821 124.589 27.1821 123.991 27.1821C122.63 27.1821 121.325 27.0194 120.073 26.5854C118.931 26.2056 117.843 25.6088 116.972 24.7951C116.482 24.3611 116.102 23.9271 115.775 23.4388C115.34 24.3068 114.741 25.0121 113.98 25.6631C112.511 26.8566 110.661 27.2364 108.811 27.2364C108.376 27.2364 107.941 27.2364 107.56 27.1821C106.091 27.0736 104.568 26.8024 103.316 26.0429H103.262C102.881 25.7716 102.5 25.5003 102.174 25.1748C102.01 25.4461 101.793 25.7173 101.521 25.9886C100.705 26.8024 99.671 27.2364 98.5284 27.2364C97.3315 27.2364 96.2978 26.8024 95.4817 25.9886C94.6656 25.1748 94.2304 24.1441 94.2304 22.9506V20.238L92.2173 24.3611C91.4012 25.9886 90.0411 27.0736 88.1369 27.0736C88.1369 27.0736 88.1369 27.0736 88.0825 27.0736C87.2664 27.0194 86.5047 26.7481 85.7974 26.2599C85.1445 25.7716 84.6005 25.1206 84.274 24.3068L84.1108 23.8728L83.9476 24.3068C83.7844 24.7951 83.4579 25.2833 83.0771 25.7173C82.7507 26.0971 82.261 26.4769 81.7714 26.6939C81.2817 26.9651 80.7376 27.0736 80.1392 27.0736C79.2687 27.0736 78.4526 26.8566 77.6909 26.3684C76.9836 25.8801 76.4395 25.1748 76.0043 24.3611L73.5016 19.153L68.5507 30.5457C67.789 32.2274 66.5376 33.4209 64.579 33.4209C64.1438 33.4209 63.7085 33.3124 63.2733 33.2039C62.4572 32.9327 61.6955 32.4444 61.1514 31.7392C60.6618 31.0882 60.3897 30.2744 60.3897 29.4064C60.3897 28.7554 60.553 28.1586 60.825 27.6161L62.4572 24.1441L60.2265 19.0988V22.9506C60.2265 24.0898 59.8457 25.1748 59.0296 25.9886C58.2135 26.8024 57.1798 27.1821 56.0373 27.1821C55.7652 27.1821 55.5476 27.1279 55.33 27.0194L53.9154 26.2599C52.9361 26.9109 51.7936 27.2364 50.5422 27.2364C49.9982 27.2364 49.3997 27.1821 48.8556 27.0736C47.8219 26.8566 46.897 26.4226 46.0265 25.8801C45.1016 25.2291 44.3943 24.4153 43.7415 23.4931C43.7415 23.4931 43.7415 23.4931 43.7415 23.4388C43.3062 22.7336 42.9798 21.9198 42.7622 21.1603C42.5989 20.672 42.5445 20.1838 42.4901 19.7498C41.1844 20.7805 39.6066 21.3773 37.8656 21.5943C37.4848 21.6486 37.0495 21.6486 36.6143 21.6486H35.7438V22.7878C35.7438 24.0356 35.3085 25.1206 34.3836 25.9886C33.5675 26.8024 32.5338 27.1821 31.3913 27.1821C30.1399 27.1821 29.0518 26.7481 28.2357 25.8801C28.2357 25.8801 28.2357 25.8258 28.1813 25.8258C27.4196 24.9578 26.9844 23.9271 26.9844 22.7336V10.3102C26.9844 9.11667 27.3108 7.92316 28.1813 7.0009C29.0518 6.13289 30.1399 5.69888 31.3369 5.69888H36.8319C38.3553 5.69888 39.8242 5.97014 41.1844 6.72964C42.4357 7.4349 43.4694 8.41141 44.2311 9.65918C44.6664 10.4729 44.9928 11.3409 45.156 12.209C45.3192 12.0462 45.5369 11.8835 45.7545 11.7207C46.6794 10.9612 47.7675 10.4729 49.0189 10.2017C49.5085 10.0932 50.0526 10.0389 50.5422 10.0389C51.7936 10.0389 52.9361 10.3644 53.9154 11.0154L55.33 10.2559C55.7652 9.98468 56.2549 9.87618 56.7445 9.87618C57.5606 9.87618 58.2679 10.2017 58.812 10.7984C59.084 11.0697 59.3016 11.3409 59.5192 11.6664C59.9001 11.1782 60.3897 10.7984 60.9882 10.5272C61.5867 10.2559 62.1851 10.0932 62.838 10.0932C63.4365 10.0932 63.9805 10.2559 64.5246 10.4729C65.0687 10.7442 65.5583 11.1239 65.9392 11.6122C66.3744 12.1005 66.6464 12.6972 66.8641 13.294L66.9185 13.4025C67.0817 12.9142 67.2993 12.426 67.5169 11.992C67.8978 11.3952 68.3874 10.9069 69.0403 10.5814C69.6388 10.2559 70.2917 10.0932 70.9445 10.0932C71.8694 10.0932 72.6855 10.3644 73.3928 10.8527C73.6104 10.7442 73.8281 10.6357 73.9913 10.5272C74.5353 10.2559 75.0794 10.0932 75.6779 10.0932C75.7323 10.0932 75.7323 10.0932 75.7867 10.0932C76.3851 10.0932 76.9292 10.2017 77.4733 10.4187C78.0173 10.6357 78.507 10.9069 78.9422 11.3409C79.3775 11.7749 79.7039 12.2632 79.9215 12.8057L80.0304 13.1855C80.7376 11.3952 81.989 9.98468 84.0564 9.98468C84.5461 9.98468 85.0357 10.0932 85.471 10.2559C86.1782 10.4729 86.7767 10.8527 87.2664 11.4494C87.7016 11.9377 88.0281 12.5345 88.2457 13.1855L88.3545 12.8057C88.5721 12.2632 88.8986 11.7749 89.3338 11.3409C89.7146 10.9612 90.2043 10.6357 90.7484 10.4187C91.3468 10.2017 91.8909 10.0932 92.4894 10.0932C92.5438 10.0932 92.5438 10.0932 92.5982 10.0932C93.1422 10.0932 93.7407 10.2559 94.2304 10.5272C94.72 10.7442 95.1009 11.0697 95.4817 11.3952C95.5361 11.3952 95.5361 11.3409 95.5905 11.2867C95.5361 11.2324 95.4273 11.1782 95.3729 11.1239C94.5024 10.2559 94.0671 9.17092 94.0671 7.92316C94.0671 6.72964 94.5568 5.64463 95.3729 4.77662H95.4273C95.8625 4.34262 96.2978 4.07137 96.8419 3.80011C97.3859 3.58311 97.93 3.47461 98.5284 3.47461C99.7254 3.47461 100.813 3.96286 101.63 4.83087C102.5 5.69888 102.881 6.7839 102.881 7.97741C102.881 9.17092 102.5 10.2559 101.63 11.1239C101.575 11.1782 101.521 11.2324 101.412 11.2867C101.738 11.5579 102.01 11.8834 102.228 12.2632C102.337 12.4802 102.446 12.643 102.5 12.86C103.207 11.9377 104.132 11.2867 105.22 10.7984C106.417 10.2559 107.723 10.0932 109.083 10.0932C110.063 10.0932 111.096 10.1474 112.021 10.4187C113.218 10.7442 114.524 11.2867 115.286 12.3175C115.558 12.7515 115.775 13.1855 115.83 13.728ZM114.415 16.983C114.361 16.983 114.252 17.0373 114.197 17.0915C114.252 17.0915 114.306 17.1458 114.361 17.2C114.361 17.0915 114.361 17.0373 114.415 16.983ZM102.772 19.5328V19.587H102.827C102.827 19.5328 102.827 19.5328 102.827 19.5328C102.772 19.5328 102.772 19.5328 102.772 19.5328ZM121.053 32.5529C121.433 32.0104 121.923 31.5222 122.522 31.1967C123.174 30.8169 123.882 30.6542 124.698 30.6542C125.459 30.6542 126.167 30.8712 126.82 31.2509C127.418 31.6307 127.962 32.1732 128.289 32.7699C128.669 33.4209 128.887 34.1804 128.887 34.8857V49.5334C128.887 50.7269 128.452 51.7576 127.636 52.5714C127.636 52.6256 127.636 52.6256 127.581 52.6256C126.765 53.4394 125.732 53.8191 124.589 53.8191C123.446 53.8191 122.467 53.4394 121.651 52.6256H121.597C121.379 52.4086 121.216 52.1916 121.053 51.9204C120.889 52.1374 120.726 52.4086 120.509 52.5714C120.509 52.6256 120.454 52.6256 120.454 52.6256C119.638 53.4394 118.604 53.8191 117.462 53.8191C116.319 53.8191 115.34 53.4394 114.524 52.6256C114.469 52.6256 114.469 52.6256 114.469 52.6256C114.252 52.4086 114.089 52.1916 113.925 51.9204C113.762 52.1916 113.599 52.4086 113.381 52.6256C112.565 53.4394 111.477 53.8191 110.335 53.8191C110.117 53.8191 109.845 53.7649 109.627 53.6564L108.267 52.8426C107.288 53.5479 106.145 53.8191 104.894 53.8191C104.295 53.8191 103.751 53.7649 103.153 53.6564C102.174 53.4936 101.249 53.0596 100.378 52.4629C99.7254 52.0289 99.1813 51.4864 98.6373 50.8896C98.4196 51.5949 97.9844 52.2459 97.3859 52.7884C96.5698 53.4394 95.5905 53.8191 94.5568 53.8191C94.0671 53.8191 93.5775 53.7649 93.1422 53.6021H93.0878C92.3261 53.3309 91.6733 52.8426 91.1292 52.2459C90.5851 51.5949 90.3131 50.8354 90.2043 50.0759L90.1499 49.3706L89.7691 50.6184C89.5514 51.3236 89.2794 51.9746 88.8441 52.5171C88.4089 53.0596 87.8648 53.4394 87.212 53.6564C86.7767 53.8191 86.2327 53.9277 85.743 53.9277C84.8181 53.9277 84.002 53.6021 83.2947 53.0054C82.6418 52.3544 82.2066 51.5406 81.9346 50.6726L81.5537 49.3706L81.4993 50.0759C81.3905 50.8896 81.0641 51.5949 80.5744 52.2459C80.0304 52.8426 79.3775 53.3309 78.6158 53.6021C78.5614 53.6021 78.5614 53.6021 78.5614 53.6021C78.0717 53.7649 77.6365 53.8191 77.1468 53.8191C76.1131 53.8191 75.1338 53.4394 74.3177 52.7884C73.5016 52.0831 72.9576 51.1609 72.8487 50.0759C72.8487 50.0216 72.8487 49.9674 72.8487 49.9131C72.8487 49.5334 72.8487 49.1536 72.9032 48.8281C72.9032 48.7738 72.9032 48.7196 72.9032 48.7196L74.9706 36.5132C75.1338 35.591 75.4602 34.7229 76.0587 34.0177C76.6028 33.2582 77.3645 32.7157 78.235 32.4444C78.8878 32.1732 79.5951 32.0647 80.3024 32.0647C81.4449 32.0647 82.533 32.3902 83.4579 33.0954C84.3828 33.8007 84.9813 34.7229 85.3078 35.8622L85.8518 37.6525L86.3415 35.8622C86.6679 34.7229 87.3208 33.8007 88.2457 33.0954C89.225 32.3902 90.2587 32.0647 91.4012 32.0647C92.1085 32.0647 92.8158 32.1732 93.4687 32.4444C94.3392 32.7157 95.0464 33.2582 95.6449 34.0177C96.189 34.7229 96.5698 35.591 96.6786 36.5132L97.5491 41.6128C97.6035 41.45 97.6579 41.3415 97.7668 41.233C98.3108 40.0938 99.0725 39.1172 100.052 38.3577C101.031 37.5982 102.119 37.0557 103.316 36.8387C103.806 36.7302 104.35 36.6217 104.894 36.6217C106.091 36.6217 107.233 36.9472 108.267 37.6525L109.682 36.893C110.063 36.6217 110.552 36.459 111.096 36.459C111.858 36.459 112.62 36.7845 113.164 37.3812C113.164 37.3812 113.164 37.4355 113.218 37.4355V34.8314C113.218 34.0719 113.436 33.3667 113.817 32.7157C114.197 32.0647 114.687 31.5764 115.34 31.1967C116.047 30.8169 116.754 30.6542 117.516 30.6542C118.278 30.6542 119.04 30.8712 119.692 31.2509C120.236 31.5764 120.672 32.0104 121.053 32.5529ZM105.275 45.4646C105.275 45.6816 105.329 45.8443 105.438 46.0071C105.547 46.1156 105.601 46.1698 105.71 46.1698C105.819 46.1698 105.873 46.1698 105.928 46.1156C106.036 46.0613 106.091 46.0071 106.145 45.8986V45.8443C106.2 45.7901 106.254 45.7358 106.254 45.6816C106.254 45.5188 106.254 45.3018 106.254 45.1391C106.2 44.9221 106.145 44.7051 105.928 44.5965C105.873 44.5423 105.764 44.488 105.71 44.488C105.601 44.488 105.601 44.5423 105.547 44.5965C105.384 44.7051 105.329 44.9221 105.275 45.1391C105.275 45.1391 105.275 45.1933 105.275 45.2476C105.275 45.3018 105.275 45.4103 105.275 45.4646ZM50.9231 18.8818C50.9231 19.0445 50.9775 19.2615 51.0863 19.4243C51.1951 19.5328 51.2495 19.587 51.4127 19.587C51.4671 19.587 51.5215 19.5328 51.6304 19.4785C51.6848 19.4243 51.7392 19.37 51.7936 19.3158C51.7936 19.2615 51.7936 19.2615 51.848 19.2073C51.848 19.153 51.9024 19.0988 51.9024 19.0445C51.9024 18.8818 51.9024 18.719 51.9024 18.502C51.848 18.285 51.7936 18.068 51.5759 17.9595C51.5215 17.9595 51.4127 17.9053 51.3583 17.9053C51.3039 17.9053 51.2495 17.9053 51.1951 18.0138C51.0319 18.1223 50.9775 18.3393 50.9231 18.502C50.9231 18.5563 50.9231 18.6105 50.9231 18.6105C50.9231 18.719 50.9231 18.7733 50.9231 18.8818Z" fill="#157571"/>
<path d="M74.2628 49.9128C74.2628 49.4787 74.2628 49.1532 74.3172 48.9362L76.3846 36.7299C76.4935 36.0246 76.7655 35.4278 77.2007 34.8853C77.5816 34.3428 78.1256 33.9631 78.7241 33.7461C79.2682 33.5833 79.7578 33.4748 80.3019 33.4748C81.118 33.4748 81.9341 33.6918 82.5869 34.2343C83.2398 34.7226 83.7295 35.4278 83.9471 36.2416L85.8513 42.6974L87.7011 36.2416C87.9732 35.3736 88.4628 34.7226 89.1157 34.2343C89.823 33.6918 90.5846 33.4748 91.4007 33.4748C91.9448 33.4748 92.4345 33.5833 92.9785 33.7461C93.577 33.9631 94.121 34.3428 94.5019 34.8853C94.8827 35.3736 95.1548 36.0246 95.318 36.7299L97.3854 48.9362C97.3854 49.1532 97.3854 49.4787 97.3854 49.9128C97.331 50.618 97.0046 51.2148 96.4605 51.703C95.9165 52.137 95.2636 52.4083 94.5563 52.4083C94.2299 52.4083 93.9034 52.354 93.577 52.2455C93.0329 52.0828 92.5977 51.7573 92.2168 51.3233C91.8904 50.8893 91.6728 50.401 91.6184 49.9128L90.7479 42.5347L88.4084 50.2383C88.1908 50.835 87.9732 51.3233 87.7011 51.6488C87.4835 51.9743 87.1571 52.1913 86.7762 52.2998C86.341 52.4625 86.0145 52.5168 85.7425 52.5168C85.1984 52.5168 84.7088 52.354 84.2735 51.92C83.8383 51.5403 83.5118 50.9978 83.2942 50.2383L80.9548 42.5347L80.0843 49.9128C80.0299 50.401 79.8122 50.8893 79.4314 51.3233C79.105 51.7573 78.6697 52.0828 78.1256 52.2455C77.7992 52.354 77.4728 52.4083 77.1463 52.4083C76.4391 52.4083 75.7862 52.137 75.2421 51.703C74.6981 51.2148 74.3716 50.618 74.2628 49.9128ZM103.588 38.1946C104.132 38.0861 104.567 38.0319 104.893 38.0319C106.145 38.0319 107.179 38.4659 108.049 39.2796V39.3339L110.388 38.0861C110.552 37.9776 110.824 37.9234 111.096 37.9234C111.477 37.9234 111.857 38.0319 112.129 38.3574C112.782 39.0626 113.163 39.9306 113.163 40.9072V49.533C113.163 50.401 112.891 51.052 112.347 51.5945C111.803 52.137 111.15 52.4083 110.334 52.4083L108.049 51.052V51.2148C107.233 52.0285 106.199 52.4083 104.893 52.4083C104.458 52.4083 103.969 52.354 103.424 52.2998C102.663 52.137 101.901 51.8115 101.194 51.3233C100.432 50.7808 99.8337 50.1298 99.2896 49.316C98.9088 48.7192 98.6368 48.0682 98.4735 47.363C98.2559 46.712 98.2015 45.8982 98.2015 45.0302C98.2559 43.8909 98.5279 42.8059 99.0176 41.8294C99.5073 40.9072 100.16 40.0934 100.976 39.4424C101.792 38.7914 102.663 38.4116 103.588 38.1946ZM103.805 45.3557C103.805 45.9525 103.969 46.4407 104.349 46.929C104.73 47.363 105.165 47.58 105.71 47.58C106.09 47.58 106.362 47.5257 106.689 47.3087C106.961 47.146 107.233 46.8747 107.396 46.5492C107.559 46.278 107.614 46.061 107.668 45.7897C107.668 45.627 107.668 45.3557 107.668 45.0302C107.559 44.1622 107.179 43.5654 106.526 43.2942C106.199 43.1857 105.927 43.0772 105.71 43.0772C105.274 43.0772 104.839 43.2399 104.513 43.5654C104.186 43.9452 103.969 44.3792 103.86 44.9217C103.86 45.0302 103.86 45.0844 103.86 45.1387C103.86 45.1929 103.86 45.3014 103.805 45.3557ZM115.503 51.5945C114.904 51.052 114.632 50.3468 114.632 49.5872V34.8311C114.632 34.3428 114.741 33.9088 115.013 33.4748C115.285 33.0408 115.611 32.6611 116.047 32.4441C116.482 32.1728 116.972 32.0643 117.516 32.0643C118.005 32.0643 118.495 32.1728 118.93 32.4441C119.365 32.7153 119.692 33.0408 119.91 33.4748C120.182 33.9088 120.29 34.3971 120.29 34.8853V49.533C120.29 50.3468 120.018 51.052 119.474 51.5945C118.93 52.137 118.223 52.4083 117.461 52.4083C116.7 52.4083 116.047 52.137 115.503 51.5945ZM122.63 51.5945C122.031 51.052 121.759 50.3468 121.759 49.5872V34.8311C121.759 34.3428 121.923 33.9088 122.14 33.4748C122.412 33.0408 122.739 32.6611 123.228 32.4441C123.664 32.1728 124.153 32.0643 124.643 32.0643C125.187 32.0643 125.622 32.1728 126.057 32.4441C126.493 32.7153 126.819 33.0408 127.091 33.4748C127.309 33.9088 127.418 34.3971 127.418 34.8853V49.533C127.418 50.3468 127.146 51.052 126.602 51.5945C126.057 52.137 125.35 52.4083 124.588 52.4083C123.827 52.4083 123.174 52.137 122.63 51.5945ZM29.2689 24.9032C28.6705 24.2522 28.3984 23.547 28.3984 22.7332V10.3098C28.3984 9.33331 28.6705 8.57381 29.2145 7.97705C29.7586 7.38029 30.4659 7.10904 31.3364 7.10904H36.8314C38.1915 7.10904 39.3885 7.38029 40.4766 7.97705C41.5647 8.57381 42.3808 9.33331 42.9793 10.3641C43.5777 11.3406 43.8498 12.4798 43.8498 13.7276C43.7954 15.4636 43.2513 16.9284 42.1632 18.1219C41.0751 19.2612 39.6061 19.9664 37.7019 20.1834C37.321 20.2377 36.9402 20.2377 36.6138 20.2377H34.2743V22.7875C34.2743 23.6555 34.0023 24.415 33.4038 24.9575C32.8597 25.5 32.1525 25.7712 31.3908 25.7712C30.5203 25.7712 29.813 25.5 29.2689 24.9032ZM34.2743 15.0839H36.6682C37.049 15.0839 37.3754 14.9754 37.6475 14.7041C37.9195 14.4329 38.0827 14.0531 38.0827 13.7276C38.0827 13.3479 37.9195 13.0224 37.6475 12.7511C37.3754 12.4798 37.049 12.3171 36.6682 12.3171H34.2743V15.0839ZM49.2904 11.6118C49.8345 11.5033 50.2153 11.4491 50.5417 11.4491C51.7931 11.4491 52.8268 11.8288 53.6973 12.6968V12.7511L56.0368 11.5033C56.2544 11.3406 56.472 11.2863 56.744 11.2863C57.1793 11.2863 57.5057 11.4491 57.7778 11.7746C58.485 12.4256 58.8115 13.2936 58.8115 14.3244V22.9502C58.8115 23.764 58.5394 24.4692 57.9954 25.0117C57.5057 25.5 56.7984 25.7712 56.0368 25.7712L53.6973 24.4692V24.5777C52.9356 25.3915 51.8475 25.8255 50.5417 25.8255C50.1065 25.8255 49.6168 25.7712 49.1272 25.6627C48.3111 25.5 47.6038 25.1745 46.8421 24.6862C46.1348 24.198 45.482 23.547 44.9379 22.7332C44.5571 22.0822 44.285 21.4312 44.1218 20.7802C43.9586 20.0749 43.8498 19.3154 43.8498 18.3932C43.9042 17.2539 44.1762 16.2231 44.6659 15.2466C45.1555 14.2701 45.8084 13.4564 46.6245 12.8596C47.4406 12.2086 48.3111 11.7746 49.2904 11.6118ZM49.508 18.7729C49.508 19.3697 49.6712 19.8579 49.9977 20.2919C50.3785 20.7259 50.8138 20.9972 51.4122 20.9972C51.7387 20.9972 52.0651 20.8887 52.3371 20.7259C52.6636 20.5089 52.8812 20.2919 53.0444 19.9122C53.2076 19.6952 53.262 19.4239 53.3164 19.2069C53.3164 18.9899 53.3164 18.7729 53.3164 18.3932C53.2076 17.5794 52.8268 16.9826 52.1739 16.6571C51.9019 16.5486 51.6299 16.4944 51.3578 16.4944C50.9226 16.4944 50.5417 16.6571 50.1609 16.9826C49.8345 17.3081 49.6168 17.7422 49.5624 18.2847C49.508 18.3932 49.508 18.4474 49.508 18.5017C49.508 18.6102 49.508 18.6644 49.508 18.7729ZM61.5862 11.8288C61.967 11.6118 62.4023 11.5033 62.8375 11.5033C63.2184 11.5033 63.5448 11.6118 63.9256 11.7746C64.2521 11.9373 64.5785 12.2086 64.8505 12.5341C65.1226 12.8596 65.3402 13.2936 65.5034 13.7819L66.9724 17.7422L68.2781 13.8361C68.3869 13.5106 68.5502 13.1309 68.7678 12.6968C68.9854 12.3171 69.3118 12.0458 69.6927 11.8288C70.0735 11.6118 70.5088 11.5033 70.944 11.5033C71.7601 11.5033 72.5218 11.8288 73.1203 12.4798C73.5555 12.9681 73.7732 13.5649 73.7732 14.3244C73.7732 14.7041 73.7187 15.1381 73.5011 15.5721L67.2444 29.9485C66.646 31.3591 65.7755 32.0101 64.5785 32.0101C64.3609 32.0101 64.0889 31.9558 63.708 31.8473C63.1096 31.6846 62.6199 31.3591 62.2935 30.8708C61.967 30.4368 61.8038 29.9485 61.8038 29.406C61.8038 28.972 61.9126 28.5923 62.0758 28.2125L64.0345 24.198L60.1716 15.3551C60.0084 15.0839 59.954 14.7584 59.954 14.3786C59.954 13.8361 60.1172 13.3479 60.3892 12.8596C60.6613 12.3713 61.0965 12.0458 61.5862 11.8288ZM75.7862 11.5033C76.167 11.5033 76.5479 11.5576 76.9287 11.7203C77.364 11.8831 77.6904 12.1001 77.9624 12.3713C78.2345 12.6426 78.4521 12.9681 78.5609 13.2936L80.0299 17.5252L81.2268 13.9989C81.8253 12.2628 82.7502 11.3948 84.0559 11.3948C84.3279 11.3948 84.6544 11.5033 85.0896 11.6118C85.5249 11.7203 85.9057 11.9916 86.1777 12.3713C86.5042 12.6968 86.7762 13.2394 87.0482 13.9989L88.2452 17.5252L89.7141 13.2936C89.823 12.9681 90.0406 12.6426 90.3126 12.3713C90.5846 12.1001 90.9111 11.8831 91.2919 11.7203C91.6728 11.5576 92.0536 11.5033 92.4889 11.5033C92.8697 11.5033 93.2505 11.6118 93.6314 11.8288C94.121 12.0458 94.5019 12.3713 94.7739 12.8054C95.046 13.2936 95.2092 13.7819 95.2092 14.3244C95.2092 14.8669 95.1004 15.3009 94.8827 15.7891L90.9655 23.7097C90.3126 25.0117 89.3877 25.6627 88.1364 25.6627C87.5923 25.6627 87.1027 25.4457 86.6674 25.1202C86.1777 24.7947 85.8513 24.3607 85.5793 23.764L84.1103 20.1292L82.6413 23.764C82.4781 24.1437 82.3149 24.4692 82.0429 24.7405C81.7709 25.066 81.4988 25.283 81.1724 25.3915C80.846 25.5542 80.4651 25.6627 80.1387 25.6627C79.4858 25.6627 78.9417 25.5 78.5065 25.2287C78.0712 24.9032 77.636 24.415 77.3096 23.7097L73.3923 15.7891C73.1747 15.2466 73.0659 14.8126 73.0659 14.3244C73.0659 13.7819 73.1747 13.2936 73.4467 12.8596C73.7732 12.3713 74.154 12.0458 74.6437 11.8288C75.0245 11.6118 75.4053 11.5033 75.7862 11.5033ZM98.5279 25.8255C97.7119 25.8255 97.059 25.5542 96.5149 25.0117C95.9709 24.415 95.6988 23.764 95.6988 22.9502V14.3786C95.6988 13.8904 95.8076 13.4021 96.0797 12.9681C96.2973 12.5341 96.6781 12.2086 97.1134 11.9373C97.5486 11.6661 97.9839 11.5576 98.5279 11.5576C99.0176 11.5576 99.5073 11.7203 99.9425 11.9373C100.378 12.2086 100.704 12.5341 100.976 12.9681C101.248 13.4021 101.357 13.8904 101.357 14.4329V22.9502C101.357 23.764 101.085 24.415 100.541 24.9575C99.9425 25.5542 99.2896 25.8255 98.5279 25.8255ZM96.4061 10.0928C95.8076 9.49607 95.5356 8.79081 95.5356 7.9228C95.5356 7.10904 95.8076 6.40378 96.4061 5.75277C96.7325 5.48152 97.0046 5.26452 97.3854 5.15602C97.7663 4.99327 98.0927 4.88477 98.5279 4.88477C99.344 4.88477 100.051 5.21027 100.595 5.80703C101.194 6.40378 101.466 7.16329 101.466 7.97705C101.466 8.84506 101.194 9.55032 100.595 10.0928C100.051 10.6896 99.344 10.9608 98.5279 10.9608C97.6574 10.9608 96.9502 10.6896 96.4061 10.0928ZM104.023 24.849C102.935 24.1437 102.391 23.4385 102.391 22.6247C102.391 22.4077 102.445 22.1907 102.5 21.9737C102.608 21.5397 102.88 21.2142 103.316 20.9429C103.697 20.6717 104.132 20.5632 104.73 20.5632C105.057 20.5632 105.438 20.6174 105.982 20.7802L106.471 20.9429L106.852 21.0514C107.396 21.2684 107.886 21.4312 108.375 21.4854H108.484H108.811C109.028 21.4854 109.192 21.4312 109.246 21.2684C109.246 20.9972 109.192 20.8344 108.974 20.7259C108.974 20.7259 108.974 20.6717 108.92 20.6717C108.92 20.6717 108.92 20.6717 108.865 20.6174H108.811L108.593 20.5089L108.049 20.4004L107.396 20.1834L106.906 20.0749C106.145 19.8579 105.546 19.6409 105.002 19.4239C104.513 19.1527 104.132 18.8814 103.86 18.5559C103.533 18.2847 103.316 17.9049 103.152 17.4709C102.935 16.9826 102.826 16.4944 102.826 16.0061C102.826 15.2466 103.098 14.4871 103.588 13.7819C104.132 13.0766 104.839 12.5341 105.764 12.1001C106.743 11.7203 107.831 11.5033 109.083 11.5033C110.062 11.5033 110.933 11.6118 111.694 11.8288C112.891 12.1543 113.707 12.5883 114.143 13.1309C114.36 13.4564 114.469 13.7819 114.469 14.2159C114.469 14.6499 114.306 15.0296 114.088 15.3551C113.816 15.6806 113.435 15.8976 113 16.0061C112.837 16.0604 112.619 16.1146 112.402 16.1146C112.075 16.1146 111.64 16.0604 111.15 15.8976L110.388 15.7349L110.008 15.6264L109.572 15.5179C109.464 15.5179 109.355 15.5179 109.3 15.5179C108.811 15.5179 108.539 15.5179 108.43 15.5179V15.5721L108.321 15.6264C108.267 15.6806 108.267 15.7349 108.267 15.7891C108.267 15.8976 108.321 16.0061 108.484 16.1689C108.539 16.1689 108.593 16.1689 108.593 16.2231C108.647 16.2231 108.647 16.2231 108.702 16.2774L108.92 16.3316L109.3 16.4401L110.171 16.7656L110.824 16.9284L111.368 17.1454C111.912 17.3081 112.456 17.5794 113.054 18.0134C113.653 18.3932 114.088 18.8814 114.36 19.4239C114.687 20.0207 114.795 20.6174 114.795 21.2142C114.795 22.5162 114.251 23.6012 113.054 24.5235C112.021 25.3915 110.552 25.8255 108.811 25.8255C108.539 25.8255 108.158 25.8255 107.668 25.7712C106.145 25.6627 104.893 25.3372 104.023 24.849ZM130.519 17.7422C130.519 18.5559 130.356 19.1527 130.029 19.4782C129.648 19.8579 129.05 20.0207 128.234 20.0207H121.596C121.596 20.0749 121.759 20.2377 122.031 20.5089C122.303 20.6717 122.521 20.8344 122.739 20.8887C122.956 20.9972 123.228 21.0514 123.609 21.1057C123.99 21.1599 124.48 21.2142 124.969 21.2142C125.513 21.1599 126.166 21.0514 126.928 20.8344C127.526 20.6717 127.962 20.6174 128.234 20.6174C128.887 20.6174 129.431 20.7802 129.811 21.2142C130.247 21.5939 130.464 22.0822 130.464 22.6247C130.464 22.8417 130.41 23.0045 130.41 23.113C130.301 23.4385 130.138 23.7097 129.975 23.981C129.757 24.198 129.485 24.415 129.213 24.632C128.887 24.849 128.397 25.0117 127.853 25.2287C127.146 25.4457 126.384 25.6085 125.622 25.6627C125.133 25.7712 124.588 25.7712 123.99 25.7712C122.739 25.7712 121.596 25.6085 120.562 25.2287C119.529 24.9032 118.658 24.3607 117.897 23.7097C117.189 23.0587 116.591 22.2992 116.21 21.3769C115.829 20.5089 115.666 19.5324 115.666 18.4474C115.666 17.5252 115.883 16.6029 116.264 15.7349C116.645 14.9211 117.189 14.1616 117.842 13.5649C118.549 12.9139 119.311 12.4256 120.236 12.1001C121.161 11.7203 122.195 11.5576 123.228 11.5576C124.643 11.5576 125.949 11.8831 127.037 12.5341C127.744 12.9139 128.343 13.4021 128.832 13.9989C129.376 14.5956 129.757 15.1924 130.083 15.8434C130.356 16.4944 130.519 17.1454 130.519 17.7422ZM121.651 17.2539H124.697C124.697 17.1454 124.643 17.0369 124.643 16.9826C124.534 16.1689 123.936 15.7891 122.902 15.7891C122.303 15.8976 121.923 16.3316 121.705 17.0369C121.651 17.1454 121.651 17.1996 121.651 17.2539Z" fill="white"/>
<path fill-rule="evenodd" clip-rule="evenodd" d="M40.8046 59.2442C43.7969 59.2442 46.1364 61.6312 46.1364 64.615C46.1364 67.5445 43.7969 69.9316 40.8046 69.9316C37.8667 69.9316 35.4728 67.5445 35.4728 64.615C35.4728 61.6312 37.8667 59.2442 40.8046 59.2442ZM17.5188 7.27215L25.0812 37.2185H63.1655C65.6138 37.2185 67.6268 39.2257 67.6268 41.667C67.6268 44.1625 65.6138 46.1698 63.1655 46.1698H27.3119L27.6927 47.6888H63.1655C65.6138 47.6888 67.6268 49.6961 67.6268 52.1374C67.6268 54.6329 65.6138 56.6402 63.1655 56.6402H25.0812C24.8092 56.6402 24.5372 56.5859 24.3195 56.5859C22.5241 56.4774 20.892 55.2297 20.4567 53.3851L9.95632 11.4494H12.2958C14.8529 11.4494 17.0291 9.65918 17.5188 7.27215ZM2.61149 3.47461H12.1326C13.6015 3.47461 14.7441 4.88512 14.7441 6.56689C14.7441 8.30291 13.6015 9.65918 12.1326 9.65918H2.61149C1.19693 9.65918 0 8.30291 0 6.56689C0 4.88512 1.19693 3.47461 2.61149 3.47461ZM54.4605 59.2442C57.3985 59.2442 59.7923 61.6312 59.7923 64.615C59.7923 67.5445 57.3985 69.9316 54.4605 69.9316C51.4682 69.9316 49.0743 67.5445 49.0743 64.615C49.0743 61.6312 51.4682 59.2442 54.4605 59.2442ZM54.4605 60.6547C56.6368 60.6547 58.3778 62.3907 58.3778 64.615C58.3778 66.785 56.6368 68.5211 54.4605 68.5211C52.2843 68.5211 50.4889 66.785 50.4889 64.615C50.4889 62.3907 52.2843 60.6547 54.4605 60.6547ZM54.4605 61.6312C56.0927 61.6312 57.4529 62.9332 57.4529 64.615C57.4529 66.2425 56.0927 67.5445 54.4605 67.5445C52.7739 67.5445 51.4682 66.2425 51.4682 64.615C51.4682 62.9332 52.7739 61.6312 54.4605 61.6312ZM40.8046 60.6547C42.9808 60.6547 44.7762 62.3907 44.7762 64.615C44.7762 66.785 42.9808 68.5211 40.8046 68.5211C38.6284 68.5211 36.8874 66.785 36.8874 64.615C36.8874 62.3907 38.6284 60.6547 40.8046 60.6547ZM40.8046 61.6312C42.4912 61.6312 43.7969 62.9332 43.7969 64.615C43.7969 66.2425 42.4912 67.5445 40.8046 67.5445C39.1724 67.5445 37.8123 66.2425 37.8123 64.615C37.8123 62.9332 39.1724 61.6312 40.8046 61.6312Z" fill="white"/>
</svg>
