<svg width="26" height="28" viewBox="0 0 26 28" fill="none" xmlns="http://www.w3.org/2000/svg">
<path d="M0.489959 1.19696C0.179607 1.51282 0 2.00458 0 2.64142V25.3573C0 25.9941 0.179607 26.4859 0.489959 26.8018L0.566557 26.8711L13.6594 14.147V13.8466L0.566557 1.1225L0.489959 1.19696Z" fill="white"/>
<path d="M19.6056 18.3906L15.2461 14.1471V13.8467L19.6108 9.60318L19.7086 9.65839L24.8776 12.5178C26.3527 13.3292 26.3527 14.6646 24.8776 15.4812L19.7086 18.3354L19.6056 18.3906Z" fill="white"/>
<path d="M18.9132 19.1265L14.4507 14.7879L1.28125 27.5929C1.77121 28.0937 2.5702 28.154 3.47881 27.6533L18.9132 19.1265Z" fill="white"/>
<path d="M18.9132 8.86852L3.47881 0.341726C2.5702 -0.153884 1.77121 -0.0935397 1.28125 0.407207L14.4507 13.207L18.9132 8.86852Z" fill="white"/>
</svg>
