<svg width="100" height="100" viewBox="0 0 100 100" fill="none" xmlns="http://www.w3.org/2000/svg">
<g clip-path="url(#clip0_2705_62702)">
<path d="M100 50C100 77.6143 77.6143 100 50 100C22.3857 100 0 77.6143 0 50C0 22.3857 22.3857 0 50 0C77.6143 0 100 22.3857 100 50Z" fill="#1D2633"/>
<path d="M87.1408 62.7676C88.8293 62.7676 90.0303 64.4086 89.3953 65.9731C83.0821 81.5301 67.8216 92.501 49.9987 92.501C32.176 92.501 16.9155 81.5301 10.6021 65.9731C9.96716 64.4086 11.1682 62.7676 12.8567 62.7676H87.1408Z" fill="#EDEBDE"/>
<path d="M89.3953 34.0278C90.0303 35.5924 88.8293 37.2334 87.1408 37.2334H12.8567C11.1682 37.2334 9.96717 35.5924 10.6021 34.0278C16.9154 18.4709 32.1759 7.5 49.9987 7.5C67.8216 7.5 83.0819 18.4709 89.3953 34.0278Z" fill="#EDEBDE"/>
<path d="M87.295 46.4375C90.104 46.4375 91.4595 48.3973 91.4595 50.6673V54.9298H88.5199V51.1736C88.5199 50.1448 88.1442 49.2955 87.0664 49.2955C85.9885 49.2955 85.6293 50.1448 85.6293 51.1736V54.9298H82.6896V51.1736C82.6896 50.1448 82.3304 49.2955 81.2525 49.2955C80.1746 49.2955 79.799 50.1448 79.799 51.1736V54.9298H76.8594V50.6673C76.8594 48.3973 78.2149 46.4375 81.0239 46.4375C82.559 46.4375 83.6695 47.0418 84.1757 48.038C84.7147 47.0418 85.8906 46.4375 87.295 46.4375Z" fill="#EDEBDE"/>
<path d="M71.5802 52.3163C72.5274 52.3163 72.9357 51.4508 72.9357 50.4219V46.7637H75.8753V50.7812C75.8753 53.1818 74.4708 55.1743 71.5802 55.1743C68.6895 55.1743 67.2852 53.1818 67.2852 50.7812V46.7637H70.2247V50.4219C70.2247 51.4508 70.633 52.3163 71.5802 52.3163Z" fill="#EDEBDE"/>
<path d="M62.9624 55.1901C61.117 55.1901 59.9248 54.5532 59.2227 53.3121L61.3457 52.1198C61.6397 52.6424 62.0805 52.9037 62.8154 52.9037C63.4197 52.9037 63.6973 52.6915 63.6973 52.4302C63.6973 51.434 59.3859 52.4464 59.3859 49.2782C59.3859 47.7431 60.6924 46.502 62.9134 46.502C64.8569 46.502 65.9184 47.4491 66.392 48.3637L64.2689 49.5722C64.0893 49.0822 63.534 48.7883 62.9788 48.7883C62.5542 48.7883 62.3255 48.9679 62.3255 49.2129C62.3255 50.2254 66.6369 49.2946 66.6369 52.3648C66.6369 54.0796 64.9549 55.1901 62.9624 55.1901Z" fill="#EDEBDE"/>
<path d="M52.6896 58.6863H49.75V50.831C49.75 48.3324 51.6281 46.5195 54.2411 46.5195C56.7887 46.5195 58.7321 48.463 58.7321 50.831C58.7321 53.444 57.0011 55.1752 54.4044 55.1752C53.8001 55.1752 53.1959 54.9955 52.6896 54.7178V58.6863ZM54.2411 52.4152C55.172 52.4152 55.7925 51.6965 55.7925 50.8474C55.7925 49.9818 55.172 49.2795 54.2411 49.2795C53.3102 49.2795 52.6896 49.9818 52.6896 50.8474C52.6896 51.6965 53.3102 52.4152 54.2411 52.4152Z" fill="#EDEBDE"/>
<path d="M46.8067 45.8987C45.8432 45.8987 45.043 45.0985 45.043 44.135C45.043 43.1713 45.8432 42.3711 46.8067 42.3711C47.7703 42.3711 48.5706 43.1713 48.5706 44.135C48.5706 45.0985 47.7703 45.8987 46.8067 45.8987ZM45.337 46.7642H48.2766V54.9298H45.337V46.7642Z" fill="#EDEBDE"/>
<path d="M39.6982 55.1738C37.1505 55.1738 35.207 53.2141 35.207 50.8297C35.207 48.4617 37.1505 46.502 39.6982 46.502C42.2458 46.502 44.1893 48.4617 44.1893 50.8297C44.1893 53.2141 42.2458 55.1738 39.6982 55.1738ZM39.6982 52.4138C40.629 52.4138 41.2497 51.6952 41.2497 50.8461C41.2497 49.9805 40.629 49.2619 39.6982 49.2619C38.7673 49.2619 38.1467 49.9805 38.1467 50.8461C38.1467 51.6952 38.7673 52.4138 39.6982 52.4138Z" fill="#EDEBDE"/>
<path d="M29.6563 58.9313C27.6312 58.9313 26.1614 58.033 25.4102 56.4327L27.8435 55.1262C28.1048 55.6814 28.5948 56.253 29.6073 56.253C30.6688 56.253 31.371 55.5834 31.4527 54.4075C31.0608 54.7505 30.4402 55.0118 29.5093 55.0118C27.2393 55.0118 25.4102 53.2644 25.4102 50.8147C25.4102 48.4467 27.3535 46.5195 29.9013 46.5195C32.5142 46.5195 34.3923 48.3324 34.3923 50.831V54.0647C34.3923 57.0042 32.3509 58.9313 29.6563 58.9313ZM29.8523 52.2518C30.7342 52.2518 31.4037 51.6475 31.4037 50.7494C31.4037 49.8675 30.7342 49.2795 29.8523 49.2795C28.9867 49.2795 28.3008 49.8675 28.3008 50.7494C28.3008 51.6475 28.9867 52.2518 29.8523 52.2518Z" fill="#EDEBDE"/>
<path d="M20.4208 55.1738C17.8732 55.1738 15.9297 53.2141 15.9297 50.8297C15.9297 48.4617 17.8732 46.502 20.4208 46.502C22.9684 46.502 24.9119 48.4617 24.9119 50.8297C24.9119 53.2141 22.9684 55.1738 20.4208 55.1738ZM20.4208 52.4138C21.3517 52.4138 21.9723 51.6952 21.9723 50.8461C21.9723 49.9805 21.3517 49.2619 20.4208 49.2619C19.4899 49.2619 18.8693 49.9805 18.8693 50.8461C18.8693 51.6952 19.4899 52.4138 20.4208 52.4138Z" fill="#EDEBDE"/>
<path d="M10.576 43.9062V52.1535H15.4426V54.9297H10.1677C8.30591 54.9297 7.55469 53.9499 7.55469 52.3984V43.9062H10.576Z" fill="#EDEBDE"/>
<path d="M42.5 8.15968C44.9346 7.72619 47.4409 7.5 50.0001 7.5C52.5592 7.5 55.0655 7.72619 57.5 8.15966V37.2334H42.5V8.15968Z" fill="#AC2828"/>
<path d="M57.5008 62.7676H42.4994C42.4679 69.29 41.2796 75.7557 38.9889 81.8642L35.8984 90.1055C40.3111 91.6571 45.0571 92.501 50.0002 92.501C54.9432 92.501 59.6892 91.6571 64.1018 90.1055L61.0113 81.8642C58.7207 75.7557 57.5323 69.29 57.5008 62.7676Z" fill="#AC2828"/>
<path d="M57.5 8.16016C62.926 9.12627 67.9959 11.122 72.5 13.9383V37.2339H57.5V8.16016Z" fill="#306A9F"/>
<path d="M64.101 90.1055C70.9227 87.7068 76.948 83.617 81.6733 78.339L80.9359 77.8697C75.7564 74.5736 72.5906 68.8943 72.5012 62.7676H57.5C57.5315 69.29 58.7199 75.7557 61.0106 81.8642L64.101 90.1055Z" fill="#306A9F"/>
<path d="M27.5 13.9383C32.0041 11.1221 37.0739 9.12627 42.5 8.16016V37.2339H27.5V13.9383Z" fill="#DEB038"/>
<path d="M27.4963 62.7676H42.4976C42.4662 69.2621 41.2878 75.7005 39.0163 81.786L35.8966 90.1055C29.0747 87.7068 23.0496 83.617 18.3242 78.339L19.0616 77.8697C24.2411 74.5736 27.407 68.8943 27.4963 62.7676Z" fill="#DEB038"/>
</g>
<defs>
<clipPath id="clip0_2705_62702">
<rect width="100" height="100" fill="white"/>
</clipPath>
</defs>
</svg>
