<svg width="150" height="78" viewBox="0 0 150 78" fill="none" xmlns="http://www.w3.org/2000/svg">
<path d="M38.0078 38.0044L38.3149 37.9395H63.8585L73.4568 47.5378H47.5415L38.0078 38.0044Z" fill="#0095FF"/>
<path d="M29.7866 37.9395L3.87109 37.9396L13.4694 47.5379H29.7863L29.7866 37.9395Z" fill="#0095FF"/>
<path d="M82.375 10.3672H86.3556V22.736H93.1923V26.0869H82.375V10.3672Z" fill="#0095FF"/>
<path d="M100.423 26.4243C99.0883 26.4243 97.9194 26.1844 96.9141 25.7046C95.9097 25.2099 95.1302 24.5354 94.5753 23.6807C94.0355 22.8111 93.7656 21.8142 93.7656 20.6896C93.7656 19.5653 94.0355 18.5757 94.5753 17.7212C95.1302 16.8517 95.9097 16.177 96.9141 15.6973C97.9194 15.2024 99.0883 14.9551 100.423 14.9551C101.757 14.9551 102.927 15.2024 103.931 15.6973C104.936 16.177 105.708 16.8517 106.247 17.7212C106.802 18.5757 107.08 19.5653 107.08 20.6896C107.08 21.8142 106.802 22.8111 106.247 23.6807C105.708 24.5354 104.936 25.2099 103.931 25.7046C102.927 26.1844 101.757 26.4243 100.423 26.4243ZM100.423 23.3434C101.217 23.3434 101.847 23.111 102.312 22.6463C102.791 22.1664 103.031 21.5143 103.031 20.6896C103.031 19.8651 102.791 19.2204 102.312 18.7556C101.847 18.2759 101.217 18.036 100.423 18.036C99.628 18.036 98.9915 18.2759 98.5109 18.7556C98.0463 19.2204 97.8141 19.8651 97.8141 20.6896C97.8141 21.5143 98.0463 22.1664 98.5109 22.6463C98.9915 23.111 99.628 23.3434 100.423 23.3434Z" fill="#0095FF"/>
<path d="M114.511 31.2594C113.791 31.2594 113.064 31.192 112.329 31.057C111.61 30.9221 110.988 30.7421 110.463 30.5173V27.7737C111.647 28.2834 112.997 28.5384 114.511 28.5384C115.605 28.5384 116.392 28.3134 116.872 27.8635C117.367 27.4138 117.614 26.7543 117.614 25.8846V25.2323C117.179 25.6072 116.64 25.8996 115.996 26.1094C115.366 26.3194 114.69 26.4243 113.971 26.4243C112.832 26.4243 111.827 26.1844 110.958 25.7046C110.088 25.2251 109.406 24.5502 108.911 23.6807C108.431 22.8111 108.191 21.8142 108.191 20.6896C108.191 19.5503 108.431 18.5457 108.911 17.6762C109.391 16.8067 110.065 16.1395 110.935 15.6747C111.804 15.195 112.802 14.9551 113.926 14.9551C115.471 14.9551 116.745 15.4273 117.749 16.3718V15.2924H121.572V25.3449C121.572 27.219 120.996 28.6732 119.841 29.7077C118.701 30.7421 116.925 31.2594 114.511 31.2594ZM114.96 23.3658C115.575 23.3658 116.123 23.2084 116.602 22.8936C117.082 22.5787 117.419 22.159 117.614 21.6342V19.7453C117.404 19.2204 117.059 18.8081 116.58 18.5083C116.1 18.1935 115.56 18.036 114.96 18.036C114.152 18.036 113.499 18.2759 113.004 18.7556C112.51 19.2204 112.262 19.8577 112.262 20.6672C112.262 21.4918 112.51 22.1514 113.004 22.6463C113.499 23.126 114.152 23.3658 114.96 23.3658Z" fill="#0095FF"/>
<path d="M129.235 26.4243C127.901 26.4243 126.731 26.1844 125.726 25.7046C124.722 25.2099 123.943 24.5354 123.388 23.6807C122.848 22.8111 122.578 21.8142 122.578 20.6896C122.578 19.5653 122.848 18.5757 123.388 17.7212C123.943 16.8517 124.722 16.177 125.726 15.6973C126.731 15.2024 127.901 14.9551 129.235 14.9551C130.569 14.9551 131.738 15.2024 132.744 15.6973C133.748 16.177 134.52 16.8517 135.06 17.7212C135.615 18.5757 135.892 19.5653 135.892 20.6896C135.892 21.8142 135.615 22.8111 135.06 23.6807C134.52 24.5354 133.748 25.2099 132.744 25.7046C131.738 26.1844 130.569 26.4243 129.235 26.4243ZM129.235 23.3434C130.03 23.3434 130.659 23.111 131.124 22.6463C131.604 22.1664 131.844 21.5143 131.844 20.6896C131.844 19.8651 131.604 19.2204 131.124 18.7556C130.659 18.2759 130.03 18.036 129.235 18.036C128.44 18.036 127.803 18.2759 127.323 18.7556C126.859 19.2204 126.626 19.8651 126.626 20.6896C126.626 21.5143 126.859 22.1664 127.323 22.6463C127.803 23.111 128.44 23.3434 129.235 23.3434Z" fill="#0095FF"/>
<path d="M82.375 31.873H86.3556V47.5927H82.375V31.873Z" fill="#0095FF"/>
<path d="M88.3711 36.7982H92.1938V37.8776C93.1982 36.9332 94.4735 36.4609 96.0175 36.4609C97.1411 36.4609 98.139 36.7008 99.0078 37.1806C99.8776 37.6453 100.552 38.3124 101.032 39.182C101.512 40.0365 101.752 41.0336 101.752 42.173C101.752 43.2974 101.512 44.3019 101.032 45.1865C100.552 46.056 99.8776 46.7308 99.0078 47.2104C98.154 47.6902 97.1561 47.9301 96.0175 47.9301C95.2971 47.9301 94.6078 47.8176 93.9486 47.5928C93.3035 47.3829 92.7638 47.0905 92.3294 46.7157V52.5179H88.3711V36.7982ZM94.9832 44.8492C95.7927 44.8492 96.4443 44.6093 96.939 44.1295C97.4336 43.6498 97.681 42.9975 97.681 42.173C97.681 41.3485 97.4336 40.7038 96.939 40.2389C96.4443 39.7592 95.7927 39.5194 94.9832 39.5194C94.3832 39.5194 93.8433 39.6768 93.3638 39.9917C92.8841 40.2913 92.5389 40.7038 92.3294 41.2285V43.14C92.5389 43.6648 92.8841 44.0845 93.3638 44.3993C93.8433 44.6993 94.3832 44.8492 94.9832 44.8492Z" fill="#0095FF"/>
<path d="M107.652 47.9301C106.782 47.9301 105.875 47.8401 104.931 47.6602C103.987 47.4954 103.236 47.2555 102.682 46.9407V44.0396C103.296 44.3993 104.031 44.6993 104.886 44.9392C105.755 45.164 106.55 45.2765 107.269 45.2765C107.794 45.2765 108.177 45.2389 108.417 45.164C108.657 45.089 108.776 44.9392 108.776 44.7142C108.776 44.5343 108.694 44.3919 108.529 44.2871C108.379 44.1671 108.094 44.0471 107.675 43.9271C107.269 43.7922 106.797 43.6498 106.258 43.4998C105.343 43.23 104.623 42.9525 104.099 42.6677C103.574 42.3828 103.184 42.0232 102.93 41.5883C102.675 41.1536 102.547 40.6062 102.547 39.9465C102.547 38.7773 103.004 37.9076 103.919 37.3381C104.848 36.7532 106.116 36.4609 107.719 36.4609C108.498 36.4609 109.316 36.5434 110.171 36.7082C111.04 36.8732 111.692 37.0906 112.128 37.3605V40.2165C111.677 39.9167 111.078 39.6692 110.329 39.4744C109.593 39.2795 108.904 39.182 108.259 39.182C107.749 39.182 107.352 39.2344 107.067 39.3394C106.782 39.4294 106.64 39.5944 106.64 39.8342C106.64 40.0591 106.782 40.2315 107.067 40.3514C107.352 40.4714 107.862 40.6213 108.596 40.8012C109.076 40.921 109.279 40.9736 109.204 40.9586C110.163 41.2135 110.905 41.4983 111.43 41.8132C111.954 42.1282 112.322 42.5028 112.532 42.9377C112.757 43.3574 112.87 43.8971 112.87 44.5568C112.87 45.5913 112.42 46.416 111.52 47.0305C110.635 47.6302 109.346 47.9301 107.652 47.9301Z" fill="#0095FF"/>
<path d="M118.781 47.9307C117.297 47.9307 116.18 47.5184 115.43 46.6939C114.696 45.8692 114.328 44.7824 114.328 43.433V36.7988H118.286V42.9832C118.286 44.2275 118.849 44.8498 119.972 44.8498C120.483 44.8498 120.947 44.7298 121.367 44.49C121.787 44.2501 122.131 43.8977 122.401 43.433V36.7988H126.359V47.5934H122.537V46.4239C122.072 46.9187 121.51 47.2936 120.85 47.5484C120.19 47.8033 119.5 47.9307 118.781 47.9307Z" fill="#0095FF"/>
<path d="M128.387 36.7982H132.052V37.9676C132.502 37.4879 133.019 37.1206 133.604 36.8656C134.189 36.5958 134.811 36.4609 135.471 36.4609C136.28 36.4609 136.925 36.5808 137.405 36.8206C137.9 37.0606 138.296 37.4203 138.596 37.9002C139.046 37.4503 139.593 37.0981 140.238 36.8432C140.882 36.5884 141.535 36.4609 142.194 36.4609C143.619 36.4609 144.631 36.8282 145.231 37.5627C145.831 38.2824 146.131 39.3244 146.131 40.6888V47.5928H142.352V41.251C142.352 40.6513 142.239 40.2165 142.015 39.9465C141.79 39.6768 141.415 39.5418 140.89 39.5418C140.216 39.5418 139.668 39.7818 139.249 40.2613C139.264 40.5163 139.272 40.9062 139.272 41.4309V47.5928H135.493V41.0936C135.493 40.5388 135.395 40.1415 135.201 39.9017C135.006 39.6618 134.661 39.5418 134.166 39.5418C133.402 39.5418 132.742 39.9691 132.188 40.8236V47.5928H128.387V36.7982Z" fill="#0095FF"/>
<path d="M38.3161 37.9392L38.0089 38.0043L47.5421 47.5375V73.4529H39.3835L29.7852 63.8546H37.9438V37.9391H29.7852V29.7808H37.9438V3.86523L47.5421 13.4635V29.7806L37.9438 29.7808V37.9391L38.3161 37.9392Z" fill="#0095FF"/>
<path d="M63.8594 37.9399L73.4577 47.5382V39.3795L63.8594 29.7812V37.9399Z" fill="#0095FF"/>
<path d="M82.9375 54.9727H88.762C90.4109 54.9727 91.6926 55.3625 92.6077 56.1422C93.5366 56.9217 94.0022 58.0761 94.0022 59.6053C94.0022 61.1496 93.5442 62.3041 92.6303 63.0688C91.7151 63.8333 90.4259 64.2156 88.762 64.2156H84.6916V70.6923H82.9375V54.9727ZM88.6271 62.7314C89.7517 62.7314 90.6367 62.5065 91.2808 62.0567C91.9259 61.592 92.2474 60.7749 92.2474 59.6053C92.2474 58.421 91.9259 57.6038 91.2808 57.1542C90.6367 56.6893 89.7517 56.457 88.6271 56.457H84.6916V62.7314H88.6271Z" fill="#0095FF"/>
<path d="M96.2461 54.0723H97.9773V70.6915H96.2461V54.0723Z" fill="#0095FF"/>
<path d="M105.487 71.0285C104.047 71.0285 102.938 70.6387 102.158 69.859C101.393 69.0794 101.012 68.0375 101.012 66.7331V59.8965H102.743V66.8231C102.743 68.7122 103.725 69.6567 105.689 69.6567C106.514 69.6567 107.233 69.4767 107.848 69.117C108.477 68.757 109.04 68.1873 109.534 67.4078V59.8965H111.267V70.6911H109.579V69.0718C108.605 70.3762 107.241 71.0285 105.487 71.0285Z" fill="#0095FF"/>
<path d="M118.166 71.0298C117.461 71.0298 116.704 70.9248 115.894 70.715C115.085 70.52 114.455 70.2727 114.005 69.9727V68.5111C114.575 68.8559 115.228 69.1332 115.962 69.343C116.711 69.553 117.431 69.6579 118.121 69.6579C119.05 69.6579 119.718 69.5304 120.122 69.2756C120.543 69.0057 120.752 68.6085 120.752 68.0838C120.752 67.6789 120.662 67.3641 120.482 67.1393C120.302 66.8993 120.003 66.6894 119.582 66.5096C119.163 66.3296 118.51 66.1197 117.627 65.8799C116.757 65.64 116.06 65.3926 115.535 65.1378C115.025 64.8678 114.635 64.5305 114.365 64.1256C114.095 63.721 113.961 63.2037 113.961 62.574C113.961 61.5995 114.35 60.8573 115.13 60.3477C115.924 59.8228 116.974 59.5605 118.278 59.5605C118.982 59.5605 119.643 59.628 120.258 59.7628C120.887 59.8828 121.411 60.0552 121.832 60.2802V61.7419C121.396 61.502 120.872 61.3146 120.258 61.1796C119.643 61.0298 119.005 60.9548 118.346 60.9548C117.476 60.9548 116.817 61.0822 116.366 61.337C115.917 61.592 115.692 62.0043 115.692 62.574C115.692 62.9638 115.767 63.2637 115.917 63.4735C116.082 63.6834 116.374 63.8784 116.794 64.0582C117.229 64.2232 117.919 64.4331 118.863 64.6879C120.213 65.0628 121.149 65.505 121.674 66.0149C122.214 66.5096 122.483 67.1993 122.483 68.0838C122.483 68.9982 122.124 69.7179 121.404 70.2427C120.7 70.7674 119.62 71.0298 118.166 71.0298Z" fill="#0095FF"/>
</svg>
