<svg width="150" height="72" viewBox="0 0 150 72" fill="none" xmlns="http://www.w3.org/2000/svg">
<g clip-path="url(#clip0_2705_62791)">
<path d="M135.825 69.545V69.7143C135.783 69.81 135.733 69.9021 135.674 69.9891L135.459 70.2429L135.244 70.4332C135.02 70.6207 134.766 70.7707 134.492 70.8771H134.384C134.117 70.982 133.833 71.0393 133.546 71.0464H124.947C124.717 71.0537 124.489 71.0121 124.277 70.9246C124.066 70.837 123.876 70.7054 123.721 70.5389L114.327 60.9816L108.157 70.2005L108.028 70.3696L107.813 70.6234H107.705H107.598H107.447C107.275 70.768 107.079 70.8825 106.867 70.9618L106.652 71.0675C106.382 71.1641 106.1 71.2211 105.814 71.2366H97.2143C96.985 71.2439 96.7566 71.2025 96.5452 71.1148C96.3336 71.0273 96.1439 70.8957 95.9889 70.7291L92.7857 67.1136L81.5207 71.0675C81.2573 71.1841 80.9711 71.2418 80.6823 71.2366C80.292 71.2471 79.9105 71.1195 79.6075 70.8771L79.4354 70.708L74.0609 64.6607C73.8459 65.3796 73.6739 66.0986 73.4375 66.7752L73.3086 67.0712C73.2714 67.1691 73.2207 67.2616 73.158 67.3461L73.0291 67.5152L72.7925 67.7689L72.4916 68.0439C72.3254 68.1693 72.145 68.2757 71.9541 68.3611L71.3307 69.1221C71.035 69.2312 70.7221 69.2884 70.4062 69.2914H63.355C63.127 69.3029 62.8993 69.2652 62.6877 69.1813C62.4761 69.0971 62.2855 68.9689 62.1296 68.805L59.8079 66.1832L58.7973 69.4816C58.7734 69.5939 58.7296 69.7012 58.6684 69.7989L58.5393 70.0737L58.4104 70.2429L58.1955 70.4966C58.1059 70.5989 58.0048 70.6911 57.8945 70.7714C57.7157 70.8896 57.5289 70.9955 57.3355 71.0886L57.0561 71.2366C56.7682 71.35 56.4629 71.4145 56.153 71.427H43.3832C43.1504 71.4373 42.9179 71.3973 42.7025 71.3096C42.487 71.222 42.2937 71.0888 42.1364 70.9195L40.2661 68.805H33.4943L33.3438 69.3125C33.3177 69.4212 33.2816 69.5273 33.2363 69.6296C33.1779 69.7168 33.1275 69.8087 33.0857 69.9045L32.9568 70.0737L32.7418 70.3275C32.6521 70.4298 32.5513 70.522 32.4409 70.6023C32.2621 70.7204 32.0754 70.8264 31.8818 70.9195L31.6023 71.0675C31.3146 71.1809 31.0093 71.2452 30.6995 71.2579H22.7237C22.4943 71.2652 22.2661 71.2236 22.0545 71.1361C21.843 71.0484 21.6532 70.9168 21.4984 70.7504L19.0261 67.9804H11.6522C11.4243 67.9918 11.1966 67.9543 10.985 67.8704C10.7734 67.7862 10.5829 67.6579 10.4269 67.4941L0.387277 56.795C0.467675 56.8748 0.562445 56.9395 0.666761 56.9854C0.480821 56.8768 0.325598 56.7241 0.215321 56.5412C0.0738325 56.2696 0 55.9689 0 55.6637C0 55.3586 0.0738325 55.0579 0.215321 54.7862C5.89337 43.3148 10.5473 31.3796 14.1245 19.1157V18.9677L13.4151 18.1641C13.4151 18.1641 13.5226 18.1641 13.5871 18.3121C13.3492 18.0973 13.1814 17.818 13.1049 17.5094C13.0284 17.2008 13.0465 16.8768 13.1571 16.5783L15.5004 8.8395C15.696 8.25548 16.0644 7.74221 16.5586 7.3655C17.0526 6.98879 17.6498 6.76579 18.2736 6.72505H26.8729L28.2702 2.11555C28.4684 1.53304 28.8375 1.02134 29.3311 0.645009C29.8246 0.268682 30.4205 0.0446096 31.0434 0.00112027H39.0837C39.3227 -0.00803091 39.5605 0.0389895 39.7773 0.138274C39.9943 0.237557 40.1838 0.386255 40.3305 0.572029L43.0823 3.68027L43.2973 3.10936C43.4916 2.52063 43.8627 2.00355 44.3614 1.62615C44.8604 1.24875 45.4637 1.02868 46.0921 0.994911H74.4909C74.7291 0.990713 74.9654 1.03995 75.1814 1.13887C75.3973 1.23779 75.5877 1.38379 75.7379 1.56582L84.337 11.3134L84.1866 3.19395C84.1986 2.83627 84.2848 2.48477 84.44 2.16112C84.5954 1.83748 84.8163 1.54852 85.0895 1.31206C85.6089 0.781114 86.3184 0.470173 87.0673 0.445168H95.6664C95.942 0.436829 96.2148 0.50103 96.4568 0.631136C96.6986 0.761241 96.9007 0.952509 97.0423 1.1852C97.005 1.10027 96.9543 1.02175 96.8918 0.952613L103.341 8.16286L104.438 4.5472C104.628 3.96013 104.995 3.44371 105.49 3.06618C105.986 2.68866 106.585 2.46779 107.211 2.43275H138.598C138.838 2.42275 139.077 2.46711 139.297 2.56241C139.517 2.65773 139.712 2.80145 139.866 2.98248L149.669 14.041L149.798 14.189C149.904 14.3481 149.97 14.5291 149.992 14.7176C149.992 14.7176 149.992 14.7176 149.992 14.8234C150.003 14.9783 150.003 15.1336 149.992 15.2885C149.999 15.4082 149.999 15.5283 149.992 15.648L140.124 47.9779L139.995 48.295L139.845 48.5698C139.845 48.5698 139.845 48.6755 139.716 48.7389L139.501 48.9927L139.178 49.2677C139.006 49.3945 138.813 49.4791 138.641 49.5848C138.469 49.6905 138.447 49.7116 138.361 49.7329C138.07 49.8584 137.755 49.9232 137.437 49.923H133.137L134.836 51.8261V51.9741C134.945 52.1698 135.011 52.3859 135.029 52.6084L135.975 68.5512V69.1221C135.975 69.1221 135.975 69.1221 135.975 69.2702C135.975 69.4182 135.825 69.4816 135.825 69.545Z" fill="#E33629"/>
<path d="M2.32031 55.189C8.06106 43.586 12.7723 31.517 16.4016 19.1167H23.0874C19.5543 31.487 14.9958 43.5515 9.45767 55.189H2.32031ZM45.5313 3.06806L43.1881 10.7224H71.544L73.8872 3.06806H45.5313ZM23.7754 55.9292H31.7725C36.7884 47.6201 40.7658 38.7456 43.6179 29.4986H36.5022C33.5475 38.829 29.247 47.6943 23.7324 55.8235L23.7754 55.9292ZM37.7275 18.3767L35.3627 26.1577H48.9279L41.4252 50.791H36.5236L34.1588 58.5086H46.9286L56.7749 26.1577H69.9531L72.3393 18.3767H37.7275ZM31.7081 24.5297L34.1159 16.6428H39.082L41.4466 8.90394H36.5236L38.6734 2.20117H30.4827L28.3329 8.90394H17.6914L15.3267 16.6428H26.0756L13.3918 58.551H21.3675L28.8488 33.9811L31.665 36.7088L34.5243 27.3208L31.7081 24.5297ZM57.9356 29.7524C58.1415 38.7069 56.8933 47.6363 54.2381 56.204H61.3109C63.9813 47.6249 65.4284 38.7227 65.6104 29.7524H57.9356ZM95.1916 2.49719H86.485L86.7215 16.0085H95.4497L95.1916 2.49719ZM76.9829 20.2374L74.4675 28.526H80.4656L71.329 58.551L86.7431 53.1381L89.5593 43.8556L83.4108 45.9701L91.2575 20.2161L76.9829 20.2374ZM96.5247 58.5086L107.166 42.587H98.567L87.8179 58.5086H96.5247ZM106.715 4.5059L96.8041 36.9836H128.191L138.08 4.5059H106.715ZM122.451 28.8854H107.51L112.455 12.583H127.503L122.537 28.8854M114.325 42.5235L115.271 58.4452H123.87L122.903 42.5235H114.325Z" fill="#FFDFDA"/>
</g>
<defs>
<clipPath id="clip0_2705_62791">
<rect width="150" height="71.4286" fill="white"/>
</clipPath>
</defs>
</svg>
