<svg width="232" height="130" viewBox="0 0 232 130" fill="none" xmlns="http://www.w3.org/2000/svg">
<g clip-path="url(#clip0_2705_62819)">
<path d="M164.125 30.6256C164.125 31.8913 165.151 32.9173 166.417 32.9173H168.708C169.974 32.9173 171 31.8913 171 30.6256C171 29.36 169.974 28.334 168.708 28.334H166.417C165.151 28.334 164.125 29.36 164.125 30.6256Z" fill="#0084FF"/>
<path d="M97.6667 101.667H108.799L105.558 98.4263C104.699 97.5669 103.533 97.084 102.317 97.084H97.6667C79.9475 97.084 65.5833 82.7198 65.5833 65.0006C65.5833 47.2815 79.9475 32.9173 97.6667 32.9173H134.333C152.053 32.9173 166.417 47.2815 166.417 65.0006C166.417 82.7198 152.053 97.084 134.333 97.084H120.617C118.794 97.084 117.045 96.3596 115.756 95.0704L111.959 91.2734C109.81 89.1246 106.895 87.9173 103.856 87.9173H97.6667C85.0101 87.9173 74.75 77.6572 74.75 65.0006C74.75 52.344 85.0101 42.084 97.6667 42.084H134.333C146.99 42.084 157.25 52.344 157.25 65.0006C157.25 77.6572 146.99 87.9173 134.333 87.9173H125.526C123.703 87.9173 121.954 87.193 120.665 85.9038L116.868 82.1068C114.719 79.9579 111.804 78.7506 108.765 78.7506H97.6667C90.0728 78.7506 83.9167 72.5945 83.9167 65.0006C83.9167 57.4068 90.0728 51.2507 97.6667 51.2507H134.333C141.927 51.2507 148.083 57.4068 148.083 65.0006C148.083 72.5019 142.076 78.6003 134.611 78.7479L134.609 78.7506H131.255C129.432 78.7506 127.683 78.0263 126.394 76.7371L122.597 72.9401C120.834 71.1768 118.555 70.0476 116.115 69.6991L116 69.584H97.6667C95.1354 69.584 93.0833 67.5319 93.0833 65.0006C93.0833 62.4694 95.1354 60.4173 97.6667 60.4173H134.333C136.865 60.4173 138.917 62.4694 138.917 65.0006C138.917 67.5319 136.865 69.584 134.333 69.584H125.167L128.408 72.8249C129.267 73.6844 130.433 74.1673 131.648 74.1673H134.333C139.396 74.1673 143.5 70.0632 143.5 65.0006C143.5 59.9381 139.396 55.834 134.333 55.834H97.6667C92.6041 55.834 88.5 59.9381 88.5 65.0006C88.5 70.0632 92.6041 74.1673 97.6667 74.1673H114.495C116.318 74.1673 118.067 74.8917 119.356 76.1809L123.153 79.9779C125.302 82.1267 128.216 83.334 131.255 83.334H135.479V83.2988C145.071 82.7074 152.667 74.741 152.667 65.0006C152.667 54.8755 144.458 46.6673 134.333 46.6673H97.6667C87.5415 46.6673 79.3333 54.8755 79.3333 65.0006C79.3333 75.126 87.5415 83.334 97.6667 83.334H108.765C110.589 83.334 112.338 84.0583 113.627 85.3475L117.424 89.1445C119.573 91.2934 122.487 92.5006 125.526 92.5006H134.333C149.521 92.5006 161.833 80.1885 161.833 65.0006C161.833 49.8128 149.521 37.5007 134.333 37.5007H97.6667C82.4788 37.5007 70.1667 49.8128 70.1667 65.0006C70.1667 80.1885 82.4788 92.5006 97.6667 92.5006H103.856C105.68 92.5006 107.428 93.225 108.718 94.5142L112.515 98.3112C114.664 100.46 117.578 101.667 120.617 101.667H134.333C154.584 101.667 171 85.2511 171 65.0006C171 44.7502 154.584 28.334 134.333 28.334L97.6667 28.334C77.4162 28.334 61 44.7502 61 65.0006C61 85.2511 77.4162 101.667 97.6667 101.667Z" fill="#0084FF"/>
</g>
<defs>
<clipPath id="clip0_2705_62819">
<rect width="110" height="73.3333" fill="white" transform="translate(61 28.334)"/>
</clipPath>
</defs>
</svg>
