<svg width="62" height="43" viewBox="0 0 62 43" fill="none" xmlns="http://www.w3.org/2000/svg">
<path d="M11.125 42.125C10.6667 41.8333 10.3125 41.625 10.0625 41.5C9.8125 41.375 9.45833 41.2083 9 41C8.5 40.7917 7.79167 40.4375 6.875 39.9375C5.91667 39.4792 4.52083 38.75 2.6875 37.75C1.35417 37.0417 0.6875 36.4583 0.6875 36C0.6875 35.8333 0.75 35.6667 0.875 35.5C2.08333 33.625 3.35417 31.6458 4.6875 29.5625C5.97917 27.5208 7.22917 25.4375 8.4375 23.3125L3.125 23.25C2.375 23.25 1.66667 23.2292 1 23.1875C0.333332 23.1875 0 23 0 22.625V22.5C0.208332 20.125 0.375 18.3958 0.5 17.3125C0.583332 16.2292 0.645832 15.4583 0.6875 15C0.729168 14.5417 0.770832 14.2083 0.8125 14C0.8125 13.8333 0.833332 13.4583 0.875 12.875C0.916668 12.2917 1 11.3333 1.125 10C1.20833 8.66667 1.35417 6.64583 1.5625 3.9375C1.6875 2.5625 1.85417 1.60417 2.0625 1.0625C2.22917 0.520832 2.66667 0.208332 3.375 0.125C5.25 0.125 7.20833 0.104168 9.25 0.0625C11.2917 0.0625 13.3333 0.0416679 15.375 0C17.375 0 19.375 0 21.375 0C23.375 0 25.2708 0 27.0625 0C27.7708 0 28.125 0.5 28.125 1.5L27 16.75C26.875 17.7083 26.7708 18.5 26.6875 19.125C26.5625 19.75 26.4583 20.3125 26.375 20.8125C26.25 21.3542 26.125 21.875 26 22.375C25.8333 22.875 25.6458 23.4583 25.4375 24.125C25.1875 24.7083 24.7708 25.4583 24.1875 26.375C23.6042 27.3333 22.9583 28.3542 22.25 29.4375C21.5 30.5208 20.7292 31.625 19.9375 32.75C19.1458 33.875 18.3958 34.9167 17.6875 35.875C16.9375 36.875 16.2917 37.7083 15.75 38.375C15.2083 39.0833 14.8333 39.5625 14.625 39.8125C14.5 39.9375 14.3542 40.1458 14.1875 40.4375C13.9792 40.7292 13.7708 41 13.5625 41.25C13.3125 41.5417 13.0417 41.7917 12.75 42C12.4583 42.2083 12.1458 42.3125 11.8125 42.3125C11.6042 42.3125 11.375 42.25 11.125 42.125ZM44.0625 42.125C43.6042 41.8333 43.25 41.625 43 41.5C42.75 41.375 42.3958 41.2083 41.9375 41C41.4375 40.7917 40.7292 40.4375 39.8125 39.9375C38.8542 39.4792 37.4583 38.75 35.625 37.75C34.2917 37.0417 33.625 36.4583 33.625 36C33.625 35.8333 33.6875 35.6667 33.8125 35.5C35.0208 33.625 36.2917 31.6458 37.625 29.5625C38.9167 27.5208 40.1667 25.4375 41.375 23.3125L36.0625 23.25C35.3125 23.25 34.6042 23.2292 33.9375 23.1875C33.2708 23.1875 32.9375 23 32.9375 22.625V22.5C33.1458 20.125 33.3125 18.3958 33.4375 17.3125C33.5208 16.2292 33.5833 15.4583 33.625 15C33.6667 14.5417 33.7083 14.2083 33.75 14C33.75 13.8333 33.7708 13.4583 33.8125 12.875C33.8542 12.2917 33.9375 11.3333 34.0625 10C34.1458 8.66667 34.2917 6.64583 34.5 3.9375C34.625 2.5625 34.7917 1.60417 35 1.0625C35.1667 0.520832 35.6042 0.208332 36.3125 0.125C38.1875 0.125 40.1458 0.104168 42.1875 0.0625C44.2292 0.0625 46.2708 0.0416679 48.3125 0C50.3125 0 52.3125 0 54.3125 0C56.3125 0 58.2083 0 60 0C60.7083 0 61.0625 0.5 61.0625 1.5L59.9375 16.75C59.8125 17.7083 59.7083 18.5 59.625 19.125C59.5 19.75 59.3958 20.3125 59.3125 20.8125C59.1875 21.3542 59.0625 21.875 58.9375 22.375C58.7708 22.875 58.5833 23.4583 58.375 24.125C58.125 24.7083 57.7083 25.4583 57.125 26.375C56.5417 27.3333 55.8958 28.3542 55.1875 29.4375C54.4375 30.5208 53.6667 31.625 52.875 32.75C52.0833 33.875 51.3333 34.9167 50.625 35.875C49.875 36.875 49.2292 37.7083 48.6875 38.375C48.1458 39.0833 47.7708 39.5625 47.5625 39.8125C47.4375 39.9375 47.2917 40.1458 47.125 40.4375C46.9167 40.7292 46.7083 41 46.5 41.25C46.25 41.5417 45.9792 41.7917 45.6875 42C45.3958 42.2083 45.0833 42.3125 44.75 42.3125C44.5417 42.3125 44.3125 42.25 44.0625 42.125Z" fill="#FFF0D4"/>
</svg>
