<svg width="62" height="43" viewBox="0 0 62 43" fill="none" xmlns="http://www.w3.org/2000/svg">
<path d="M49.9375 0.1875C50.3958 0.479167 50.75 0.6875 51 0.8125C51.25 0.9375 51.6042 1.10417 52.0625 1.3125C52.5625 1.52083 53.2708 1.875 54.1875 2.375C55.1458 2.83333 56.5417 3.5625 58.375 4.5625C59.7083 5.27083 60.375 5.85417 60.375 6.3125C60.375 6.47917 60.3125 6.64583 60.1875 6.8125C58.9792 8.6875 57.7083 10.6667 56.375 12.75C55.0833 14.7917 53.8333 16.875 52.625 19L57.9375 19.0625C58.6875 19.0625 59.3958 19.0833 60.0625 19.125C60.7292 19.125 61.0625 19.3125 61.0625 19.6875V19.8125C60.8542 22.1875 60.6875 23.9167 60.5625 25C60.4792 26.0833 60.4167 26.8542 60.375 27.3125C60.3333 27.7708 60.2917 28.1042 60.25 28.3125C60.25 28.4792 60.2292 28.8542 60.1875 29.4375C60.1458 30.0208 60.0625 30.9792 59.9375 32.3125C59.8542 33.6458 59.7083 35.6667 59.5 38.375C59.375 39.75 59.2083 40.7083 59 41.25C58.8333 41.7917 58.3958 42.1042 57.6875 42.1875C55.8125 42.1875 53.8542 42.2083 51.8125 42.25C49.7708 42.25 47.7292 42.2708 45.6875 42.3125C43.6875 42.3125 41.6875 42.3125 39.6875 42.3125C37.6875 42.3125 35.7917 42.3125 34 42.3125C33.2917 42.3125 32.9375 41.8125 32.9375 40.8125L34.0625 25.5625C34.1875 24.6042 34.2917 23.8125 34.375 23.1875C34.5 22.5625 34.6042 22 34.6875 21.5C34.8125 20.9583 34.9375 20.4375 35.0625 19.9375C35.2292 19.4375 35.4167 18.8542 35.625 18.1875C35.875 17.6042 36.2917 16.8542 36.875 15.9375C37.4583 14.9792 38.1042 13.9583 38.8125 12.875C39.5625 11.7917 40.3333 10.6875 41.125 9.5625C41.9167 8.4375 42.6667 7.39583 43.375 6.4375C44.125 5.4375 44.7708 4.60417 45.3125 3.9375C45.8542 3.22917 46.2292 2.75 46.4375 2.5C46.5625 2.375 46.7083 2.16667 46.875 1.875C47.0833 1.58333 47.2917 1.3125 47.5 1.0625C47.75 0.770833 48.0208 0.520833 48.3125 0.3125C48.6042 0.104167 48.9167 0 49.25 0C49.4583 0 49.6875 0.0625 49.9375 0.1875ZM17 0.1875C17.4583 0.479167 17.8125 0.6875 18.0625 0.8125C18.3125 0.9375 18.6667 1.10417 19.125 1.3125C19.625 1.52083 20.3333 1.875 21.25 2.375C22.2083 2.83333 23.6042 3.5625 25.4375 4.5625C26.7708 5.27083 27.4375 5.85417 27.4375 6.3125C27.4375 6.47917 27.375 6.64583 27.25 6.8125C26.0417 8.6875 24.7708 10.6667 23.4375 12.75C22.1458 14.7917 20.8958 16.875 19.6875 19L25 19.0625C25.75 19.0625 26.4583 19.0833 27.125 19.125C27.7917 19.125 28.125 19.3125 28.125 19.6875V19.8125C27.9167 22.1875 27.75 23.9167 27.625 25C27.5417 26.0833 27.4792 26.8542 27.4375 27.3125C27.3958 27.7708 27.3542 28.1042 27.3125 28.3125C27.3125 28.4792 27.2917 28.8542 27.25 29.4375C27.2083 30.0208 27.125 30.9792 27 32.3125C26.9167 33.6458 26.7708 35.6667 26.5625 38.375C26.4375 39.75 26.2708 40.7083 26.0625 41.25C25.8958 41.7917 25.4583 42.1042 24.75 42.1875C22.875 42.1875 20.9167 42.2083 18.875 42.25C16.8333 42.25 14.7917 42.2708 12.75 42.3125C10.75 42.3125 8.75 42.3125 6.75 42.3125C4.75 42.3125 2.85417 42.3125 1.0625 42.3125C0.354167 42.3125 0 41.8125 0 40.8125L1.125 25.5625C1.25 24.6042 1.35417 23.8125 1.4375 23.1875C1.5625 22.5625 1.66667 22 1.75 21.5C1.875 20.9583 2 20.4375 2.125 19.9375C2.29167 19.4375 2.47917 18.8542 2.6875 18.1875C2.9375 17.6042 3.35417 16.8542 3.9375 15.9375C4.52083 14.9792 5.16667 13.9583 5.875 12.875C6.625 11.7917 7.39583 10.6875 8.1875 9.5625C8.97917 8.4375 9.72917 7.39583 10.4375 6.4375C11.1875 5.4375 11.8333 4.60417 12.375 3.9375C12.9167 3.22917 13.2917 2.75 13.5 2.5C13.625 2.375 13.7708 2.16667 13.9375 1.875C14.1458 1.58333 14.3542 1.3125 14.5625 1.0625C14.8125 0.770833 15.0833 0.520833 15.375 0.3125C15.6667 0.104167 15.9792 0 16.3125 0C16.5208 0 16.75 0.0625 17 0.1875Z" fill="#FFF0D4"/>
</svg>
